<?xml version="1.0" encoding="UTF-8"?>
<svg width="277px" height="74px" viewBox="0 0 277 74" version="1.1" xmlns="http://www.w3.org/2000/svg" xmlns:xlink="http://www.w3.org/1999/xlink">
    <!-- Generator: Sketch 50.2 (55047) - http://www.bohemiancoding.com/sketch -->
    <title>Group 2</title>
    <desc>Created with Sketch.</desc>
    <defs></defs>
    <g id="Page-1" stroke="none" stroke-width="1" fill="none" fill-rule="evenodd">
        <g id="home" transform="translate(-109.000000, -28.000000)" fill="#FFFFFF">
            <g id="Group-2" transform="translate(109.000000, 28.000000)">
                <path d="M215.877,13.841 L214.105,13.413 C213.502,13.265 212.528,12.98 212.317,12.306 C211.808,10.704 213.381,10.348 214.069,10.37 C216.159,10.447 217.815,11.551 218.902,12.338 L220.887,6.972 C218.771,5.596 216.511,4.965 214.045,4.965 C209.355,4.965 204.688,8.005 204.688,13.413 C204.688,16.985 207.264,18.872 210.323,19.449 L211.896,19.763 C212.617,19.906 213.764,20.084 213.928,21.108 C214.138,22.463 213.349,22.892 211.741,22.856 C209.94,22.815 208.039,21.845 206.633,20.693 L206.236,20.355 L203.942,26.408 C206.376,27.723 209.521,28.494 212.245,28.494 C216.909,28.494 221.603,25.805 221.603,20.368 C221.603,16.503 219.203,14.614 215.877,13.841" id="Fill-1"></path>
                <polygon id="Fill-2" points="194.398 28.156 202.255 28.156 202.255 5.337 194.398 5.337"></polygon>
                <polyline id="Fill-3" points="181.904 19.105 178.411 5.337 170.248 5.337 178.586 28.152 185.22 28.152 193.581 5.337 185.396 5.337 181.904 19.105"></polyline>
                <path d="M161.217,19.878 L162.783,11.92 C162.922,12.897 164.355,19.878 164.355,19.878 L161.217,19.878 Z M158.34,5.337 L150.874,28.152 L159.174,28.152 L159.807,25.289 L165.732,25.289 L166.513,28.152 L174.821,28.152 L167.043,5.337 L158.34,5.337 Z" id="Fill-4"></path>
                <path d="M138.93,21.605 L138.394,21.605 L138.394,12.053 L138.899,12.053 C141.785,12.053 143.516,13.841 143.516,17.046 C143.516,20.024 141.564,21.605 138.93,21.605 Z M138.535,5.337 L130.495,5.337 L130.495,28.144 L140.48,28.152 C146.866,28.152 151.414,23.831 151.414,17.078 C151.414,8.691 145.834,5.337 138.535,5.337 Z" id="Fill-5"></path>
                <path d="M125.586,23.394 C124.51,26.327 120.559,26.978 118.502,26.978 C112.746,26.978 110.483,21.312 110.483,16.589 C110.483,10.002 113.813,6.292 118.844,6.312 C120.504,6.32 122.955,7.147 123.939,7.884 C124.142,8.038 124.922,10.097 125.081,10.528 C125.405,11.39 125.732,12.359 126.119,12.532 C126.741,12.82 126.241,10.686 126.139,9.795 L125.71,6.053 C123.595,5.252 121.332,4.855 119.074,4.767 C110.128,4.431 104.359,8.317 104.359,17.705 C104.359,23.115 107.564,28.524 116.837,28.524 C119.76,28.524 123.093,28.093 125.694,26.796 C125.902,26.687 125.938,25.864 126.624,23.145 C126.765,22.571 127.076,21.509 126.838,21.249 C126.52,20.892 126.071,22.071 125.586,23.394" id="Fill-6"></path>
                <path d="M104.437,5.323 C99.09,5.778 96.941,5.377 96.941,5.377 C96.941,5.377 96.336,5.505 96.834,5.948 L98.321,6.47 C99.324,6.903 99.466,6.581 99.397,7.707 L99.382,19.73 C99.382,20.995 99.324,26.663 92.765,26.663 C88.013,26.663 86.484,22.977 86.484,20.003 L86.441,7.866 C86.479,6.47 86.296,6.939 87.658,6.328 L89.376,5.825 C89.717,5.448 89.195,5.323 89.195,5.323 C83.294,5.749 80.749,5.377 78.999,5.289 C78.351,5.252 78.713,5.77 78.713,5.77 L80.862,6.581 C81.574,6.83 81.347,6.771 81.347,8.919 L81.347,21.227 C81.347,28.524 89.763,28.524 90.62,28.524 C92.421,28.524 101.677,28.726 101.677,19.635 L101.686,8.007 C101.686,6.755 101.686,7.048 102.828,6.542 L104.583,5.792 C104.906,5.415 104.437,5.323 104.437,5.323" id="Fill-7"></path>
                <path d="M92.422,43.012 C87.233,43.012 83.968,46.967 83.968,52.301 C83.968,57.599 87.233,61.59 92.422,61.59 C97.538,61.59 100.876,57.599 100.876,52.301 C100.876,46.967 97.538,43.012 92.422,43.012 Z M92.422,39.782 C99.643,39.782 104.614,45.116 104.614,52.301 C104.614,59.485 99.643,64.819 92.422,64.819 C85.201,64.819 80.23,59.485 80.23,52.301 C80.23,45.116 85.201,39.782 92.422,39.782 Z" id="Fill-8"></path>
                <polygon id="Fill-9" points="108.211 64.384 111.478 64.384 111.478 40.182 108.211 40.182"></polygon>
                <path d="M116.668,64.383 L119.933,64.383 L119.933,46.858 L116.668,46.858 L116.668,64.383 Z M116.159,42.432 C116.159,41.27 117.139,40.363 118.264,40.363 C119.425,40.363 120.368,41.27 120.368,42.432 C120.368,43.593 119.425,44.536 118.264,44.536 C117.139,44.536 116.159,43.593 116.159,42.432 Z" id="Fill-10"></path>
                <polyline id="Fill-11" points="122.546 46.858 126.03 46.858 131.509 60.61 136.988 46.858 140.508 46.858 133.287 64.384 129.767 64.384 122.546 46.858"></polyline>
                <path d="M145.482,54.333 L156.187,54.333 C156.114,52.011 154.554,49.107 150.853,49.107 C147.333,49.107 145.664,51.938 145.482,54.333 Z M150.853,46.423 C156.114,46.423 159.379,50.523 159.379,55.893 L159.379,56.691 L145.519,56.691 C145.772,59.667 147.95,62.135 151.469,62.135 C153.32,62.135 155.352,61.408 156.658,60.066 L158.182,62.207 C156.44,63.912 153.973,64.819 151.143,64.819 C145.917,64.819 142.071,61.118 142.071,55.602 C142.071,50.523 145.736,46.423 150.853,46.423 Z" id="Fill-12"></path>
                <path d="M171.904,52.301 C171.904,44.862 177.418,39.782 184.459,39.782 C189.067,39.782 192.042,42.068 193.929,44.898 L190.844,46.531 C189.575,44.5 187.179,43.012 184.459,43.012 C179.415,43.012 175.641,46.858 175.641,52.301 C175.641,57.707 179.415,61.59 184.459,61.59 C187.179,61.59 189.575,60.102 190.844,58.07 L193.929,59.703 C192.005,62.533 189.067,64.819 184.459,64.819 C177.418,64.819 171.904,59.739 171.904,52.301" id="Fill-13"></path>
                <path d="M199.811,54.333 L210.515,54.333 C210.443,52.011 208.882,49.107 205.181,49.107 C201.662,49.107 199.993,51.938 199.811,54.333 Z M205.181,46.423 C210.443,46.423 213.709,50.523 213.709,55.893 L213.709,56.691 L199.847,56.691 C200.101,59.667 202.279,62.135 205.798,62.135 C207.649,62.135 209.681,61.408 210.987,60.066 L212.511,62.207 C210.769,63.912 208.302,64.819 205.472,64.819 C200.247,64.819 196.401,61.118 196.401,55.602 C196.401,50.523 200.065,46.423 205.181,46.423 Z" id="Fill-14"></path>
                <path d="M228.916,53.172 C228.916,50.268 227.428,49.325 225.178,49.325 C223.146,49.325 221.295,50.559 220.352,51.865 L220.352,64.384 L217.086,64.384 L217.086,46.858 L220.352,46.858 L220.352,49.325 C221.513,47.91 223.835,46.423 226.557,46.423 C230.258,46.423 232.181,48.382 232.181,52.083 L232.181,64.384 L228.916,64.384 L228.916,53.172" id="Fill-15"></path>
                <path d="M237.301,60.502 L237.301,49.725 L234.399,49.725 L234.399,46.858 L237.301,46.858 L237.301,42.068 L240.567,42.068 L240.567,46.858 L244.123,46.858 L244.123,49.725 L240.567,49.725 L240.567,59.775 C240.567,61.01 241.148,61.917 242.272,61.917 C243.035,61.917 243.724,61.59 244.05,61.227 L244.885,63.694 C244.196,64.348 243.179,64.819 241.474,64.819 C238.716,64.819 237.301,63.259 237.301,60.502" id="Fill-16"></path>
                <path d="M250.076,54.333 L260.78,54.333 C260.708,52.011 259.147,49.107 255.446,49.107 C251.926,49.107 250.257,51.938 250.076,54.333 Z M255.446,46.423 C260.708,46.423 263.973,50.523 263.973,55.893 L263.973,56.691 L250.112,56.691 C250.367,59.667 252.543,62.135 256.063,62.135 C257.914,62.135 259.946,61.408 261.251,60.066 L262.776,62.207 C261.034,63.912 258.567,64.819 255.737,64.819 C250.511,64.819 246.666,61.118 246.666,55.602 C246.666,50.523 250.33,46.423 255.446,46.423 Z" id="Fill-17"></path>
                <path d="M267.351,46.858 L270.617,46.858 L270.617,49.543 C271.96,47.802 274.028,46.459 276.35,46.459 L276.35,49.761 C276.024,49.688 275.661,49.652 275.225,49.652 C273.592,49.652 271.379,50.886 270.617,52.192 L270.617,64.384 L267.351,64.384 L267.351,46.858" id="Fill-18"></path>
                <path d="M24.727,29.097 C24.85,29.632 24.222,29.716 23.954,29.484 C24.465,30.538 24.613,31.742 24.92,32.896 C25.793,36.176 26.759,39.717 27.817,42.941 C27.999,43.146 28.039,43.492 28.141,43.778 C30.725,51.346 34.463,57.758 38.764,63.61 C39.597,64.431 40.299,65.38 41.083,66.249 C41.164,66.469 41.439,66.494 41.468,66.765 C42.831,67.957 44.068,69.274 45.397,70.499 L45.46,70.499 C45.861,70.829 46.346,71.074 46.684,71.466 C47.315,71.801 47.925,72.155 48.552,72.496 C48.84,72.701 49.282,72.753 49.517,73.011 L49.581,73.011 C49.832,73.082 50.047,73.19 50.226,73.332 C51.422,73.68 53.95,74.833 54.282,72.947 L54.282,71.659 C54.153,68.268 53.124,65.777 52.287,63.094 C52.082,62.87 52.027,62.495 51.9,62.193 C48.979,54.919 45.2,48.502 40.439,43.069 C39.993,42.699 39.676,42.201 39.278,41.781 C38.824,41.292 38.453,40.72 37.927,40.3 C37.285,39.677 36.577,39.118 35.996,38.434 C32.725,35.48 29.011,32.969 25.693,30.063 C25.409,29.832 25.15,29.575 24.92,29.29 C24.885,29.197 24.82,29.134 24.727,29.097" id="Fill-20"></path>
                <path d="M7.07,14.225 C7.104,14.52 6.877,14.582 6.708,14.695 C5.226,18.253 3.272,21.558 2.038,25.444 C0.799,29.346 0.246,33.649 0.073,38.634 C0.044,38.853 0.187,39.228 0.045,39.346 C0.073,39.698 0.088,40.037 0.03,40.312 C0.001,40.532 0.144,40.906 0.002,41.023 C0.007,41.109 0.011,41.194 0.016,41.28 C-0.01,41.584 0.139,42.046 0.001,42.248 C0.004,42.312 0.007,42.377 0.011,42.441 C-0.014,42.765 0.138,43.25 0,43.473 C0.002,43.538 0.006,43.602 0.01,43.666 C0.038,44.202 0.065,44.738 0.093,45.274 C0.098,45.381 0.103,45.488 0.109,45.595 C0.278,45.975 0.186,46.643 0.253,47.136 C0.651,51.41 1.419,56.138 2.714,59.903 C2.974,60.657 3.609,63.062 4.428,63.103 C4.704,63.118 4.831,63.03 5.063,62.942 C5.247,62.741 5.314,62.432 5.545,62.273 C5.566,62.006 5.75,61.885 5.836,61.677 C6.079,61.201 6.291,60.697 6.604,60.284 C6.719,59.878 6.956,59.58 7.128,59.226 C7.257,58.974 7.343,58.682 7.543,58.496 C7.629,58.226 7.762,57.999 7.893,57.768 C8.017,57.533 8.078,57.242 8.241,57.04 C8.223,56.881 8.332,56.835 8.354,56.712 C8.45,56.37 8.585,56.063 8.757,55.788 C8.734,55.686 8.812,55.674 8.812,55.593 C8.909,55.251 9.042,54.943 9.215,54.668 C9.198,54.51 9.307,54.465 9.328,54.342 C9.406,54.042 9.52,53.779 9.674,53.55 C9.68,53.351 9.798,53.253 9.844,53.089 C9.92,52.791 10.036,52.528 10.19,52.297 C10.629,50.966 11.03,49.671 11.531,48.295 C11.697,47.842 11.992,47.376 11.98,46.983 C11.945,45.899 10.825,44.907 10.457,43.708 C10.256,43.057 10.274,42.45 10.159,41.662 C10.028,41.216 9.982,40.318 10.066,39.86 C10.115,38.679 10.303,37.622 10.543,36.613 C10.78,36.009 10.977,35.369 11.357,34.894 C11.413,34.597 11.593,34.412 11.707,34.167 C11.85,33.887 12,33.615 12.249,33.431 C12.248,33.408 12.247,33.387 12.246,33.366 C12.516,32.975 12.798,32.597 13.157,32.288 C13.04,31.998 13.153,31.872 13.117,31.516 C12.962,31.372 13.065,30.939 13.011,30.683 C13.003,30.555 12.997,30.426 12.991,30.298 C12.839,30.215 12.943,29.851 12.893,29.657 C12.295,26.514 11.734,23.329 10.629,20.747 C10.438,20.552 10.38,20.207 10.265,19.928 C9.523,18.325 8.998,16.484 8.325,14.805 C8.212,14.591 7.92,14.573 7.909,14.246 C7.625,14.245 7.407,14.17 7.07,14.225" id="Fill-21"></path>
                <path d="M24.344,37.64 C24.28,37.643 24.214,37.648 24.151,37.652 C24.114,38.566 23.08,38.872 22.159,38.808 C20.605,40.785 19.015,43.245 19.356,46.597 C19.639,49.368 21.655,51.666 23.185,53.13 C23.438,53.303 23.666,53.503 23.869,53.734 C25.625,55.108 28.759,55.82 31.68,54.856 C31.268,53.442 30.588,52.108 30.001,50.704 C28.316,46.674 26.608,42.265 25.252,37.712 C25.071,37.549 24.52,37.807 24.344,37.64" id="Fill-23"></path>
                <path d="M30.007,16.283 L26.208,16.283 C25.971,16.433 25.458,16.306 25.113,16.349 C24.849,16.297 24.784,16.446 24.534,16.413 C24.424,16.559 24.042,16.436 23.825,16.476 C23.56,16.55 23.319,16.55 23.053,16.476 C23.282,16.622 22.896,17.03 22.86,17.313 C24.541,19.281 26.698,20.774 28.784,22.336 C28.98,22.376 29.338,22.253 29.427,22.4 L29.62,22.4 C29.879,22.442 30.305,22.317 30.458,22.465 L30.587,22.465 C30.866,22.506 31.315,22.381 31.487,22.529 C32.567,22.588 33.415,22.877 34.257,23.173 C34.48,23.25 34.757,23.274 34.901,23.431 C35.144,23.402 35.203,23.557 35.352,23.623 C35.747,23.787 36.159,23.933 36.447,24.204 C36.897,24.396 37.216,24.722 37.605,24.976 C38.278,25.484 38.867,26.075 39.344,26.779 C39.364,26.931 39.567,26.899 39.537,27.101 C39.86,27.357 40.017,27.781 40.181,28.196 C40.46,28.774 40.625,29.47 40.824,30.127 C43.356,31.323 46.54,33.261 49.676,34.366 C50.753,34.747 51.908,34.895 53.128,35.146 C55.383,35.61 57.72,36.181 60.169,36.562 C62.657,36.951 65.362,37.349 68.038,36.986 C68.798,36.885 70.308,36.415 70.455,35.784 C70.706,34.704 69.689,34.18 69.488,33.375 C68.962,32.947 68.57,32.381 68.108,31.888 L68.038,31.888 C67.767,31.623 67.42,31.436 67.211,31.109 C66.525,30.656 65.938,30.101 65.277,29.622 C65.01,29.376 64.651,29.226 64.449,28.913 L64.38,28.913 C63.953,28.548 63.446,28.266 63.068,27.851 C59.866,25.4 56.359,23.262 52.575,21.407 C52.193,21.186 51.747,21.029 51.402,20.768 C45.574,18.11 39.32,16.951 32.067,16.349 C31.401,16.305 30.566,16.433 30.007,16.283" id="Fill-24"></path>
                <path d="M16.278,31.776 C16.563,32.419 17.597,32.22 18.257,31.908 C18.345,32.083 18.486,32.184 18.639,32.268 C18.877,32.361 19.086,32.468 19.344,32.573 C19.639,32.693 20.031,32.804 20.274,33.153 C20.439,33.885 20.727,34.392 20.909,35.12 C21.107,35.905 21.544,36.952 21.509,37.76 C21.467,38.733 20.755,39.36 20.25,40.131 C19.856,40.732 19.534,41.36 19.244,42.019 C18.622,43.434 18.291,44.807 18.409,46.364 C18.47,47.186 18.707,47.925 18.998,48.65 C18.946,48.67 18.899,48.688 18.865,48.697 C18.677,48.751 18.589,48.734 18.526,48.688 C18.358,48.717 18.208,48.758 18.103,48.833 C16.78,49.011 15.779,48.74 14.886,48.318 C14.662,48.11 14.416,47.934 14.146,47.787 C12.819,46.331 11.494,44.871 11.015,42.233 C10.946,41.809 10.876,41.387 10.805,40.963 C10.743,36.548 12.086,33.139 16.278,31.776" id="Fill-25"></path>
                <path d="M20.928,12.226 C21.067,12.108 21.245,12.029 21.379,11.905 C21.614,11.689 21.81,11.434 22.023,11.196 C28.841,6.017 37.122,2.299 48.037,1.215 C48.252,1.067 48.743,1.193 49.066,1.151 L49.71,1.151 C49.799,1.005 50.159,1.127 50.354,1.087 C51.156,1.136 51.77,0.999 52.544,1.022 C52.782,0.916 53.464,0.916 53.702,1.022 L54.411,1.022 C54.607,1.063 54.966,0.941 55.055,1.087 C57.653,1.255 61.027,1.484 63.426,2.117 C64.105,2.296 65.702,2.901 65.357,3.599 C65.127,3.883 64.869,4.14 64.585,4.372 C62.682,6.139 60.331,7.458 57.952,8.749 C57.75,8.976 57.426,9.082 57.116,9.201 C51.768,11.773 46.235,14.161 38.828,14.673 C38.697,14.821 38.294,14.697 38.056,14.738 L37.798,14.738 C37.667,14.886 37.263,14.761 37.025,14.802 L36.703,14.802 C36.53,14.951 36.083,14.826 35.803,14.867 C34.936,14.874 34.075,14.877 33.291,14.802 C33.011,14.761 32.564,14.886 32.389,14.738 L32.131,14.738 C31.893,14.697 31.49,14.821 31.36,14.673 C29.515,14.533 27.764,14.242 26.015,14.029 C24.239,13.814 22.559,13.408 20.799,13.192 C21.016,13.061 21.128,12.434 20.928,12.226" id="Fill-27"></path>
                <path d="M15.069,14.03 C17.199,15.59 19.91,16.573 22.86,17.314 C22.896,17.031 23.282,16.622 23.053,16.476 C21.339,16.289 19.807,15.62 18.481,14.996 C17.947,14.744 17.325,14.662 16.936,14.223 C17.303,13.865 18.128,13.723 18.739,13.579 C19.417,13.418 20.118,13.287 20.799,13.193 C21.015,13.061 21.129,12.433 20.928,12.227 C20.235,12.533 19.45,12.694 18.61,12.87 C17.828,13.034 16.956,13.404 16.227,13.386 C14.921,13.353 14.126,12.193 13.137,11.711 C12.659,11.288 12.209,10.837 11.784,10.36 C11.479,10.107 11.199,9.829 10.948,9.523 C10.881,9.353 10.692,9.305 10.625,9.136 C10.151,8.672 10.379,8.195 9.909,7.73 C9.272,8.175 7.92,9.549 7.151,9.949 C7.177,10.896 6.874,10.937 6.956,11.969 C6.913,12.292 7.04,12.783 6.891,12.999 C6.88,13.332 7.152,13.788 7.06,14.032 C7.064,14.096 7.067,14.16 7.069,14.225 C7.406,14.169 7.625,14.244 7.909,14.247 C7.909,14.225 7.908,14.204 7.906,14.183 C7.931,12.769 7.88,10.814 8.243,9.458 C8.65,9.245 8.859,9.785 9.08,9.973 C9.544,10.495 10.095,10.933 10.561,11.453 C10.845,11.685 11.103,11.942 11.334,12.227 L11.334,12.291 C11.683,12.585 12.005,12.909 12.299,13.257 C13.751,14.848 15.13,16.861 16.678,18.858 C17.159,19.48 17.859,20.146 18.095,20.726 C18.309,21.255 18.325,22.347 18.417,23.238 C18.517,24.213 19.078,25.092 18.979,25.758 C18.913,26.201 18.712,26.731 18.473,27.137 C17.753,28.355 17.144,30.258 16.85,31.29 C16.783,31.527 16.687,31.682 16.277,31.776 C16.563,32.42 17.598,32.22 18.256,31.908 C17.524,31.525 17.955,30.338 18.285,29.38 C18.502,28.75 18.989,27.326 19.45,27.802 C19.834,28.197 20.005,29.677 20.397,31.318 C20.569,32.035 22.886,38.577 22.158,38.809 C22.158,38.83 22.169,38.795 22.17,38.816 C23.091,38.874 24.125,38.56 24.155,37.646 C22.753,37.898 21.208,31.094 20.992,29.934 C20.813,28.967 20.276,27.533 20.068,26.626 C19.78,25.366 19.553,23.808 19.382,22.594 C21.081,24.714 22.45,27.168 23.955,29.484 C24.221,29.717 24.85,29.632 24.728,29.097 C23.084,26.599 21.552,23.987 19.898,21.499 C21.584,22.754 23.406,23.872 25.113,25.105 C25.322,24.841 25.607,24.653 25.757,24.332 L25.757,24.267 C24.444,23.735 23.441,22.893 22.345,22.143 C22.04,21.891 21.76,21.612 21.507,21.306 C18.803,19.438 17.129,16.541 15.069,14.03" id="Fill-29"></path>
                <path d="M30.071,23.366 L29.042,23.366 C27.586,23.289 26.738,24.148 25.757,24.332 C25.607,24.654 25.322,24.842 25.113,25.104 C24.284,26.207 24.596,27.417 25.372,28.324 C25.806,28.706 26.213,29.113 26.595,29.548 C26.709,29.668 26.824,29.789 26.916,29.934 C30.524,32.551 33.896,35.405 37.348,38.177 C38.828,36.448 39.756,33.859 39.859,30.964 C39.711,30.833 39.835,30.43 39.794,30.192 C39.529,28.697 38.826,27.641 38.055,26.65 C37.794,26.441 37.557,26.205 37.348,25.941 C35.595,24.69 33.649,23.632 30.844,23.43 C30.606,23.39 30.203,23.514 30.071,23.366" id="Fill-30"></path>
            </g>
        </g>
    </g>
</svg>