<?xml version="1.0" encoding="UTF-8"?>
<svg width="16px" height="14px" viewBox="0 0 16 14" version="1.1" xmlns="http://www.w3.org/2000/svg" xmlns:xlink="http://www.w3.org/1999/xlink">
    <!-- Generator: Sketch 43.2 (39069) - http://www.bohemiancoding.com/sketch -->
    <title>align left</title>
    <desc>Created with Sketch.</desc>
    <defs></defs>
    <g id="Page-1" stroke="none" stroke-width="1" fill="none" fill-rule="evenodd">
        <g id="align-left" fill-rule="nonzero" fill="#FFFFFF">
            <path d="M15,2 L1,2 C0.4,2 0,1.6 0,1 C0,0.4 0.4,0 1,0 L15,0 C15.6,0 16,0.4 16,1 C16,1.6 15.6,2 15,2 Z" id="Shape"></path>
            <path d="M8,6 L1,6 C0.4,6 0,5.6 0,5 C0,4.4 0.4,4 1,4 L8,4 C8.6,4 9,4.4 9,5 C9,5.6 8.6,6 8,6 Z" id="Shape"></path>
            <path d="M14,10 L1,10 C0.4,10 0,9.6 0,9 C0,8.4 0.4,8 1,8 L14,8 C14.6,8 15,8.4 15,9 C15,9.6 14.6,10 14,10 Z" id="Shape"></path>
            <path d="M11,14 L1,14 C0.4,14 0,13.6 0,13 C0,12.4 0.4,12 1,12 L11,12 C11.6,12 12,12.4 12,13 C12,13.6 11.6,14 11,14 Z" id="Shape"></path>
        </g>
    </g>
</svg>