<?xml version="1.0" encoding="UTF-8"?>
<svg width="79px" height="81px" viewBox="0 0 79 81" version="1.1" xmlns="http://www.w3.org/2000/svg" xmlns:xlink="http://www.w3.org/1999/xlink">
    <!-- Generator: Sketch 63.1 (92452) - https://sketch.com -->
    <title>oliveprint</title>
    <desc>Created with Sketch.</desc>
    <g id="Symbols" stroke="none" stroke-width="1" fill="none" fill-rule="evenodd">
        <g id="footer" transform="translate(-561.000000, -5.000000)" fill="#FFFFFF">
            <g transform="translate(0.000000, 5.000000)" id="oliveprint">
                <g transform="translate(561.000000, 0.000000)">
                    <path d="M33.9695,35.1249 C34.0935,35.6639 33.4595,35.7499 33.1905,35.5149 C33.7045,36.5769 33.8545,37.7909 34.1645,38.9559 C35.0435,42.2629 36.0175,45.8329 37.0855,49.0839 C37.2685,49.2909 37.3085,49.6399 37.4095,49.9269 C40.0155,57.5589 43.7865,64.0239 48.1225,69.9249 C48.9625,70.7529 49.6715,71.7099 50.4605,72.5869 C50.5425,72.8079 50.8205,72.8329 50.8505,73.1059 C52.2235,74.3089 53.4705,75.6359 54.8105,76.8719 L54.8745,76.8719 C55.2795,77.2039 55.7675,77.4519 56.1095,77.8459 C56.7455,78.1839 57.3615,78.5419 57.9915,78.8849 C58.2815,79.0919 58.7295,79.1439 58.9655,79.4039 L59.0305,79.4039 C59.2825,79.4769 59.5005,79.5839 59.6795,79.7289 C60.8865,80.0789 63.4355,81.2419 63.7705,79.3389 L63.7705,78.0399 C63.6395,74.6219 62.6015,72.1099 61.7575,69.4049 C61.5505,69.1789 61.4965,68.8009 61.3675,68.4959 C58.4225,61.1609 54.6135,54.6919 49.8115,49.2139 C49.3615,48.8409 49.0415,48.3379 48.6425,47.9149 C48.1835,47.4219 47.8085,46.8449 47.2795,46.4219 C46.6305,45.7929 45.9175,45.2289 45.3315,44.5389 C42.0325,41.5619 38.2885,39.0289 34.9435,36.0989 C34.6565,35.8669 34.3965,35.6059 34.1645,35.3189 C34.1275,35.2269 34.0635,35.1609 33.9695,35.1249" id="Fill-1"></path>
                    <path d="M16.1658,20.1288 C16.1988,20.4278 15.9708,20.4888 15.7998,20.6038 C14.3068,24.1908 12.3358,27.5238 11.0918,31.4418 C9.8438,35.3758 9.2838,39.7138 9.1098,44.7418 C9.0798,44.9618 9.2248,45.3398 9.0818,45.4588 C9.1098,45.8138 9.1248,46.1558 9.0668,46.4338 C9.0368,46.6538 9.1818,47.0318 9.0388,47.1508 C9.0438,47.2358 9.0478,47.3228 9.0528,47.4088 C9.0258,47.7158 9.1778,48.1818 9.0368,48.3858 C9.0408,48.4498 9.0438,48.5148 9.0478,48.5788 C9.0228,48.9068 9.1758,49.3958 9.0368,49.6208 C9.0398,49.6858 9.0428,49.7508 9.0468,49.8158 C9.0738,50.3558 9.1018,50.8968 9.1298,51.4368 C9.1358,51.5448 9.1408,51.6518 9.1458,51.7608 C9.3158,52.1428 9.2228,52.8168 9.2908,53.3138 C9.6928,57.6228 10.4688,62.3918 11.7738,66.1878 C12.0348,66.9478 12.6758,69.3728 13.4998,69.4138 C13.7788,69.4288 13.9078,69.3398 14.1428,69.2518 C14.3278,69.0478 14.3938,68.7368 14.6268,68.5768 C14.6488,68.3088 14.8338,68.1858 14.9218,67.9768 C15.1658,67.4948 15.3798,66.9878 15.6948,66.5708 C15.8118,66.1618 16.0508,65.8618 16.2248,65.5048 C16.3548,65.2498 16.4398,64.9558 16.6428,64.7678 C16.7298,64.4968 16.8638,64.2668 16.9938,64.0338 C17.1208,63.7978 17.1828,63.5028 17.3468,63.3008 C17.3278,63.1408 17.4378,63.0948 17.4598,62.9698 C17.5578,62.6248 17.6928,62.3148 17.8668,62.0388 C17.8438,61.9348 17.9218,61.9238 17.9218,61.8408 C18.0198,61.4968 18.1548,61.1858 18.3288,60.9098 C18.3108,60.7488 18.4208,60.7038 18.4408,60.5788 C18.5198,60.2778 18.6368,60.0128 18.7908,59.7808 C18.7978,59.5798 18.9158,59.4828 18.9628,59.3168 C19.0408,59.0168 19.1558,58.7508 19.3118,58.5188 C19.7548,57.1758 20.1598,55.8698 20.6638,54.4828 C20.8298,54.0248 21.1288,53.5558 21.1158,53.1598 C21.0798,52.0668 19.9518,51.0658 19.5798,49.8578 C19.3788,49.2008 19.3948,48.5888 19.2788,47.7938 C19.1478,47.3448 19.1018,46.4388 19.1858,45.9788 C19.2358,44.7868 19.4258,43.7208 19.6678,42.7038 C19.9058,42.0938 20.1038,41.4478 20.4878,40.9708 C20.5438,40.6708 20.7268,40.4838 20.8408,40.2368 C20.9838,39.9548 21.1368,39.6808 21.3878,39.4938 C21.3868,39.4718 21.3848,39.4508 21.3848,39.4298 C21.6558,39.0358 21.9408,38.6528 22.3028,38.3418 C22.1838,38.0498 22.3008,37.9228 22.2638,37.5648 C22.1058,37.4178 22.2098,36.9828 22.1558,36.7248 C22.1478,36.5948 22.1428,36.4658 22.1348,36.3348 C21.9818,36.2528 22.0878,35.8858 22.0368,35.6908 C21.4338,32.5208 20.8688,29.3088 19.7548,26.7058 C19.5618,26.5088 19.5028,26.1618 19.3868,25.8798 C18.6388,24.2638 18.1088,22.4068 17.4308,20.7138 C17.3158,20.4968 17.0228,20.4808 17.0118,20.1498 C16.7248,20.1488 16.5048,20.0728 16.1658,20.1288" id="Fill-3"></path>
                    <path d="M30.1384,18.1142 C30.2794,17.9952 30.4584,17.9152 30.5934,17.7902 C30.8294,17.5722 31.0274,17.3152 31.2424,17.0752 C38.1174,11.8522 46.4664,8.1032 57.4724,7.0112 C57.6914,6.8612 58.1854,6.9892 58.5114,6.9472 L59.1594,6.9472 C59.2494,6.7992 59.6124,6.9232 59.8104,6.8832 C60.6174,6.9322 61.2374,6.7952 62.0174,6.8172 C62.2574,6.7092 62.9464,6.7092 63.1864,6.8172 L63.9004,6.8172 C64.0974,6.8572 64.4594,6.7342 64.5494,6.8832 C67.1694,7.0512 70.5724,7.2822 72.9904,7.9212 C73.6754,8.1012 75.2844,8.7122 74.9374,9.4142 C74.7054,9.7012 74.4464,9.9612 74.1594,10.1932 C72.2404,11.9752 69.8684,13.3052 67.4704,14.6082 C67.2664,14.8372 66.9404,14.9432 66.6264,15.0632 C61.2354,17.6572 55.6564,20.0632 48.1884,20.5812 C48.0544,20.7302 47.6484,20.6042 47.4094,20.6462 L47.1494,20.6462 C47.0174,20.7962 46.6104,20.6702 46.3694,20.7122 L46.0454,20.7122 C45.8704,20.8612 45.4194,20.7342 45.1364,20.7762 C44.2634,20.7842 43.3944,20.7872 42.6044,20.7122 C42.3224,20.6702 41.8704,20.7962 41.6954,20.6462 L41.4354,20.6462 C41.1954,20.6042 40.7884,20.7302 40.6564,20.5812 C38.7964,20.4402 37.0314,20.1462 35.2674,19.9322 C33.4774,19.7152 31.7834,19.3042 30.0094,19.0892 C30.2264,18.9562 30.3404,18.3222 30.1384,18.1142" id="Fill-5"></path>
                    <path d="M12.0242,7.3359 C9.1392,4.7029 5.9782,2.3449 2.8042,-0.0001 C2.4202,0.2149 2.4702,0.4819 1.8962,0.2599 L1.8962,0.3239 C1.6432,0.4489 1.2482,0.0779 1.0512,0.4539 C0.6832,0.4109 0.6162,0.0669 0.2082,0.0649 C0.1462,0.2209 -0.0528,0.2369 0.0132,0.5199 C0.0952,0.6959 0.2732,0.7779 0.4022,0.9089 C4.7442,3.4919 8.3882,6.7739 12.2182,9.8679 C13.0892,10.6859 13.9342,11.5289 14.7522,12.3999 C15.1442,13.0019 16.0052,13.4159 16.1792,14.2829 C16.4062,15.4089 15.9512,16.6029 16.0492,17.8549 C16.0072,18.1809 16.1342,18.6759 15.9842,18.8939 C15.9742,19.2289 16.2482,19.6889 16.1552,19.9349 C16.1582,19.9989 16.1622,20.0649 16.1662,20.1299 C16.5042,20.0729 16.7242,20.1489 17.0112,20.1499 C17.0102,20.1299 17.0092,20.1069 17.0082,20.0859 C17.0332,18.6619 16.9822,16.6899 17.3472,15.3219 C17.7582,15.1079 17.9692,15.6519 18.1922,15.8419 C18.6612,16.3679 19.2142,16.8099 19.6852,17.3349 C19.9722,17.5669 20.2322,17.8269 20.4642,18.1139 L20.4642,18.1789 C20.8162,18.4769 21.1402,18.8019 21.4382,19.1519 C22.9012,20.7569 24.2932,22.7859 25.8532,24.8019 C26.3382,25.4289 27.0452,26.0999 27.2822,26.6849 C27.4982,27.2179 27.5152,28.3189 27.6072,29.2169 C27.7082,30.1999 28.2732,31.0869 28.1732,31.7579 C28.1072,32.2059 27.9052,32.7389 27.6642,33.1479 C26.9372,34.3779 26.3232,36.2959 26.0272,37.3369 C25.9602,37.5749 25.8632,37.7319 25.4502,37.8269 C25.7372,38.4759 26.7792,38.2729 27.4452,37.9589 C26.7062,37.5729 27.1402,36.3769 27.4732,35.4109 C27.6932,34.7749 28.1832,33.3389 28.6492,33.8189 C29.0352,34.2169 29.2082,35.7099 29.6032,37.3649 C29.7762,38.0869 32.1132,44.6839 31.3792,44.9169 C31.3792,44.9399 31.3892,44.9029 31.3902,44.9259 C32.3202,44.9829 33.3612,44.6679 33.3922,43.7459 C31.9782,43.9989 30.4212,37.1389 30.2032,35.9689 C30.0232,34.9939 29.4802,33.5479 29.2712,32.6339 C28.9822,31.3619 28.7532,29.7919 28.5812,28.5669 C30.2942,30.7059 31.6732,33.1799 33.1912,35.5149 C33.4602,35.7499 34.0932,35.6639 33.9692,35.1249 C32.3122,32.6049 30.7682,29.9729 29.1002,27.4639 C30.7992,28.7289 32.6362,29.8569 34.3592,31.0999 C34.5692,30.8339 34.8572,30.6449 35.0072,30.3199 L35.0072,30.2549 C33.6842,29.7179 32.6712,28.8689 31.5672,28.1129 C31.2582,27.8579 30.9772,27.5769 30.7222,27.2689 C27.9962,25.3869 26.3082,22.4639 24.2302,19.9329 C26.3782,21.5059 29.1122,22.4959 32.0862,23.2429 C32.1232,22.9579 32.5122,22.5459 32.2812,22.3989 C30.5522,22.2109 29.0082,21.5349 27.6712,20.9059 C27.1322,20.6519 26.5052,20.5699 26.1132,20.1279 C26.4842,19.7669 27.3142,19.6229 27.9312,19.4779 C28.6142,19.3159 29.3222,19.1839 30.0092,19.0879 C30.2262,18.9549 30.3402,18.3219 30.1382,18.1139 C29.4392,18.4229 28.6492,18.5859 27.8012,18.7639 C27.0132,18.9289 26.1332,19.3019 25.3992,19.2829 C24.0822,19.2499 23.2792,18.0809 22.2832,17.5949 C21.8002,17.1679 21.3462,16.7129 20.9202,16.2319 C20.6112,15.9779 20.3292,15.6959 20.0752,15.3879 C20.0072,15.2169 19.8182,15.1689 19.7512,14.9969 C17.4722,12.7729 15.2222,10.5239 12.9982,8.2449 C12.8652,8.2269 12.8712,8.0689 12.7382,8.0509 C12.4732,7.8399 12.2362,7.6019 12.0242,7.3359" id="Fill-7"></path>
                    <path d="M33.5828,43.7382 C33.5188,43.7432 33.4528,43.7472 33.3888,43.7512 C33.3528,44.6732 32.3088,44.9802 31.3798,44.9172 C29.8118,46.9102 28.2108,49.3902 28.5548,52.7702 C28.8388,55.5642 30.8718,57.8822 32.4148,59.3582 C32.6698,59.5322 32.8988,59.7352 33.1038,59.9672 C34.8748,61.3532 38.0348,62.0692 40.9798,61.0982 C40.5648,59.6732 39.8798,58.3272 39.2868,56.9112 C37.5878,52.8482 35.8668,48.4022 34.4988,43.8112 C34.3158,43.6472 33.7598,43.9072 33.5828,43.7382" id="Fill-10"></path>
                    <path d="M39.2927,22.205 L35.4627,22.205 C35.2237,22.354 34.7057,22.227 34.3587,22.269 C34.0917,22.219 34.0257,22.369 33.7737,22.335 C33.6637,22.483 33.2787,22.358 33.0607,22.399 C32.7927,22.474 32.5497,22.474 32.2807,22.399 C32.5127,22.546 32.1227,22.958 32.0857,23.243 C33.7817,25.227 35.9567,26.732 38.0607,28.308 C38.2567,28.349 38.6187,28.225 38.7087,28.373 L38.9037,28.373 C39.1647,28.414 39.5937,28.289 39.7477,28.437 L39.8777,28.437 C40.1597,28.479 40.6107,28.352 40.7867,28.503 C41.8737,28.561 42.7307,28.852 43.5777,29.151 C43.8037,29.229 44.0827,29.254 44.2277,29.412 C44.4727,29.383 44.5327,29.539 44.6817,29.606 C45.0797,29.77 45.4957,29.918 45.7857,30.19 C46.2407,30.385 46.5627,30.713 46.9547,30.97 C47.6327,31.481 48.2267,32.077 48.7067,32.788 C48.7277,32.94 48.9327,32.908 48.9017,33.112 C49.2287,33.37 49.3857,33.798 49.5517,34.217 C49.8327,34.8 49.9997,35.5 50.2007,36.164 C52.7537,37.37 55.7557,38.526 58.7057,39.54 C59.7187,39.888 60.8047,40.024 61.9527,40.254 C64.0737,40.68 66.2717,41.203 68.5747,41.553 C70.9157,41.909 73.4587,42.273 75.9767,41.942 C76.6907,41.849 78.1107,41.418 78.2477,40.839 C78.4857,39.849 77.5287,39.368 77.3407,38.631 C76.8457,38.239 76.4767,37.72 76.0417,37.268 L75.9767,37.268 C75.7217,37.025 75.3957,36.853 75.1967,36.554 C74.5527,36.138 73.9997,35.63 73.3797,35.189 C73.1287,34.965 72.7907,34.827 72.6007,34.541 L72.5347,34.541 C72.1347,34.206 71.6557,33.947 71.3017,33.567 C68.2897,31.319 64.9917,29.359 61.4337,27.658 C61.0727,27.456 60.6537,27.312 60.3287,27.074 C54.8477,24.636 48.6837,22.877 41.3707,22.269 C40.6987,22.226 39.8557,22.355 39.2927,22.205" id="Fill-12"></path>
                    <path d="M27.445,37.9591 C27.533,38.1371 27.678,38.2371 27.83,38.3231 C28.071,38.4171 28.282,38.5241 28.542,38.6301 C28.838,38.7521 29.234,38.8621 29.478,39.2151 C29.646,39.9521 29.936,40.4641 30.12,41.1981 C30.318,41.9901 30.76,43.0461 30.724,43.8591 C30.683,44.8431 29.965,45.4731 29.455,46.2511 C29.056,46.8571 28.732,47.4901 28.441,48.1541 C27.813,49.5831 27.48,50.9661 27.597,52.5351 C27.66,53.3651 27.899,54.1091 28.192,54.8411 C28.14,54.8611 28.093,54.8781 28.058,54.8891 C27.869,54.9441 27.78,54.9261 27.718,54.8801 C27.548,54.9081 27.395,54.9501 27.291,55.0261 C25.957,55.2041 24.947,54.9311 24.047,54.5071 C23.821,54.2971 23.572,54.1181 23.301,53.9711 C21.963,52.5031 20.627,51.0311 20.143,48.3701 L19.932,47.0901 C19.869,42.6381 21.222,39.2011 25.45,37.8271 C25.737,38.4751 26.78,38.2731 27.445,37.9591 Z" id="Fill-14"></path>
                    <path d="M39.3572,29.3466 L38.9682,29.3466 L38.3192,29.3466 C36.8522,29.2686 35.9982,30.1336 35.0072,30.3206 C34.8572,30.6446 34.5692,30.8336 34.3592,31.0996 C33.5232,32.2106 33.8372,33.4316 34.6192,34.3456 C35.0562,34.7306 35.4682,35.1416 35.8522,35.5786 C35.9682,35.7006 36.0842,35.8236 36.1772,35.9696 C39.8142,38.6086 43.2132,41.4846 46.6952,44.2806 C48.1882,42.5376 49.1242,39.9266 49.2262,37.0076 C49.0782,36.8756 49.2032,36.4686 49.1622,36.2296 C48.8942,34.7216 48.1842,33.6576 47.4092,32.6586 C47.1432,32.4476 46.9062,32.2086 46.6952,31.9436 C44.9272,30.6816 42.9642,29.6146 40.1362,29.4116 C39.8972,29.3696 39.4902,29.4956 39.3572,29.3466" id="Fill-16"></path>
                </g>
            </g>
        </g>
    </g>
</svg>