<?xml version="1.0" encoding="UTF-8"?>
<svg width="80px" height="82px" viewBox="0 0 80 82" version="1.1" xmlns="http://www.w3.org/2000/svg" xmlns:xlink="http://www.w3.org/1999/xlink">
    <!-- Generator: Sketch 43.2 (39069) - http://www.bohemiancoding.com/sketch -->
    <title>oliveprint</title>
    <desc>Created with Sketch.</desc>
    <defs></defs>
    <g id="Page-1" stroke="none" stroke-width="1" fill="none" fill-rule="evenodd" fill-opacity="0.9">
        <g id="content_banner-copy" transform="translate(-75.000000, -29.000000)" fill="#FFFFFF">
            <g id="Group" transform="translate(75.000000, 29.000000)">
                <g id="oliveprint">
                    <path d="M34.3977223,35.7406691 C34.5232855,36.2891182 33.8812932,36.3766258 33.6089022,36.1375061 C34.1293817,37.2181238 34.2812726,38.4534063 34.5951805,39.6388297 C35.4852613,43.0038042 36.4715396,46.6363893 37.5530029,49.9443821 C37.7383098,50.155011 37.7788141,50.5101292 37.8810873,50.8021606 C40.5199387,58.567956 44.3384763,65.1462928 48.7291362,71.1507423 C49.5797254,71.9932579 50.2976631,72.9670349 51.0966093,73.8594094 C51.179643,74.0842838 51.4611475,74.109722 51.4915256,74.387508 C52.8818338,75.6115976 54.1445536,76.961861 55.5014457,78.2195291 L55.5662525,78.2195291 C55.976358,78.5573493 56.4705097,78.809697 56.816821,79.2106041 C57.4608385,79.5545296 58.0846038,79.9188056 58.7225457,80.2678187 C59.0162014,80.4784476 59.469849,80.5313592 59.708824,80.7959172 L59.7746434,80.7959172 C60.0298201,80.8701969 60.2505683,80.9790727 60.4318247,81.1266147 C61.6540403,81.4827505 64.2351732,82.6661389 64.5743962,80.7297777 L64.5743962,79.4080051 C64.4417448,75.9300847 63.3906597,73.3740472 62.5360202,70.6216263 C62.3264107,70.3916643 62.27173,70.0070377 62.1411038,69.6966908 C59.1589789,62.233102 55.3019623,55.650695 50.4394279,50.0766611 C49.9837552,49.6971221 49.6597212,49.1853041 49.2556914,48.7548885 C48.7909052,48.2532458 48.4111779,47.6661305 47.8755093,47.235715 C47.218328,46.5956881 46.4963398,46.0218007 45.9029527,45.3197044 C42.5623652,42.2905151 38.771168,39.7131095 35.3840007,36.7317441 C35.0933827,36.4956769 34.8301051,36.2301014 34.5951805,35.93807 C34.5577141,35.8444572 34.4929073,35.7773002 34.3977223,35.7406691" id="Fill-1"></path>
                    <path d="M16.3695874,20.4816748 C16.4030034,20.7859165 16.1721292,20.8479859 15.9989736,20.965002 C14.4871527,24.6148851 12.4913061,28.0063154 11.2316242,31.9930012 C9.96789176,35.9959675 9.40083236,40.4100163 9.2246389,45.5261614 C9.19426071,45.7500182 9.3410886,46.1346449 9.19628593,46.255731 C9.2246389,46.6169545 9.23982799,46.96495 9.18109684,47.2478236 C9.15071865,47.4716804 9.29754654,47.856307 9.15274387,47.9773932 C9.1578069,48.0638833 9.16185732,48.1524085 9.16692035,48.2399162 C9.13957999,48.5522981 9.29349611,49.0264675 9.15071865,49.2340438 C9.15476908,49.2991658 9.1578069,49.3653053 9.16185732,49.4304272 C9.13654217,49.7641774 9.2914709,50.2617499 9.15071865,50.4906944 C9.15375647,50.5568339 9.15679429,50.6229734 9.16084471,50.6891129 C9.18818508,51.2385796 9.21653805,51.7890637 9.24489102,52.3385304 C9.25096666,52.4484237 9.25602969,52.5572995 9.26109272,52.6682104 C9.43323575,53.0569072 9.33906338,53.742723 9.4079206,54.2484358 C9.81498824,58.6329762 10.6007706,63.4855808 11.9222215,67.3481278 C12.1865117,68.1214513 12.8355922,70.5889636 13.6699796,70.6306823 C13.9524967,70.6459453 14.0831229,70.555385 14.3210853,70.4658423 C14.5084174,70.258266 14.5752494,69.941814 14.8111867,69.779009 C14.833464,69.5063108 15.0207961,69.3811545 15.1099055,69.1684905 C15.3569813,68.6780406 15.573679,68.1621525 15.89265,67.7378421 C16.0111249,67.321672 16.2531377,67.0164128 16.4293312,66.6531543 C16.56097,66.3936839 16.6470415,66.0945298 16.8526005,65.903234 C16.9406973,65.6274832 17.0763865,65.3934511 17.2080253,65.1563664 C17.3366262,64.9162291 17.3994078,64.6160575 17.5654752,64.4105163 C17.5462357,64.2477114 17.6576224,64.2009049 17.6798997,64.0737136 C17.7791351,63.7226654 17.9158369,63.4072309 18.0920304,63.1263924 C18.0687404,63.0205692 18.1477237,63.0093763 18.1477237,62.9249213 C18.2469591,62.5748907 18.3836609,62.2584386 18.5598544,61.9776001 C18.5416275,61.8137776 18.6530141,61.7679887 18.6732663,61.6407973 C18.7532621,61.3345206 18.8717371,61.0648749 19.0276784,60.8288077 C19.0347666,60.624284 19.1542541,60.5255835 19.2018466,60.3566734 C19.2808299,60.0514142 19.3972796,59.780751 19.5552462,59.5446838 C20.0038307,58.1781399 20.4139361,56.8492446 20.9242896,55.4379293 C21.0923822,54.9719002 21.3951514,54.4946782 21.3819875,54.091736 C21.3455337,52.9795748 20.2033141,51.9610265 19.8266246,50.7318492 C19.6230908,50.0633314 19.6392925,49.4406026 19.5218302,48.6316655 C19.3891788,48.1747942 19.3425989,47.2529112 19.4276578,46.7848471 C19.4782881,45.5719503 19.6706833,44.4872624 19.9157339,43.4524336 C20.1567342,42.8317397 20.3572302,42.1744148 20.7460709,41.6890526 C20.8027769,41.3837934 20.9880838,41.1935151 21.1035209,40.942185 C21.2483235,40.6552413 21.4032523,40.3764378 21.6574164,40.1861596 C21.6564038,40.1637739 21.6543786,40.1424057 21.6543786,40.1210376 C21.9287948,39.7201304 22.2173876,39.3304161 22.583951,39.013964 C22.4634508,38.716845 22.5819257,38.5876186 22.5444593,38.2233426 C22.3844676,38.0737655 22.4897786,37.6311396 22.4350979,37.3686167 C22.426997,37.2363376 22.421934,37.1050762 22.4138331,36.9717796 C22.2589044,36.8883421 22.3662406,36.5149083 22.3145977,36.3164898 C21.7039963,33.090917 21.1318738,29.8226079 20.0038307,27.1739751 C19.8083977,26.9735216 19.7486539,26.6204384 19.6311916,26.3334947 C18.8737623,24.6891648 18.337081,22.7996101 17.6505341,21.0769303 C17.5340844,20.8561262 17.2373908,20.8398457 17.2262522,20.503043 C16.9356342,20.5020254 16.7128609,20.4246931 16.3695874,20.4816748" id="Fill-3"></path>
                    <path d="M30.5183272,18.4317572 C30.6611046,18.310671 30.8423611,18.2292685 30.9790629,18.1020772 C31.218038,17.8802555 31.418534,17.61875 31.6362443,17.3745426 C38.5979111,12.059979 47.0521593,8.24525592 58.1969019,7.13411224 C58.4186626,6.98148261 58.91889,7.11172656 59.2489996,7.06899026 L59.9051683,7.06899026 C59.9963029,6.9183957 60.3638789,7.04456952 60.5643749,7.00386829 C61.381548,7.0537273 62.0093638,6.91432557 62.7991965,6.93671125 C63.042222,6.82681792 63.7399076,6.82681792 63.982933,6.93671125 L64.7059338,6.93671125 C64.9054172,6.97741249 65.2719806,6.85225619 65.3631151,7.00386829 C68.016143,7.17481347 71.4620415,7.40986309 73.9105231,8.0600653 C74.6041582,8.24322085 76.2334414,8.8649322 75.8820671,9.57923885 C75.6471425,9.8712702 75.3848775,10.1358282 75.0942596,10.3718954 C73.1510685,12.1851353 70.7491669,13.5384514 68.3209375,14.864294 C68.1143658,15.0973086 67.7842563,15.2051669 67.4662979,15.3272706 C62.0073385,17.9667456 56.3580092,20.4149248 48.795867,20.9420058 C48.6601778,21.0936179 48.2490597,20.965409 48.0070468,21.0081453 L47.7437693,21.0081453 C47.6101053,21.1607749 47.1979746,21.032566 46.9539365,21.0753023 L46.6258521,21.0753023 C46.4486461,21.2269144 45.9919607,21.097688 45.7053932,21.1404243 C44.8213881,21.1485645 43.9414334,21.1516171 43.1414746,21.0753023 C42.8559197,21.032566 42.3982217,21.1607749 42.2210157,21.0081453 L41.9577381,21.0081453 C41.7147126,20.965409 41.302582,21.0936179 41.168918,20.9420058 C39.2854706,20.7985339 37.4982209,20.4993798 35.7119838,20.2816282 C33.8994189,20.060824 32.1840642,19.6426189 30.387701,19.4238497 C30.6074365,19.2885181 30.7228736,18.6434036 30.5183272,18.4317572" id="Fill-5"></path>
                    <path d="M12.1757781,7.4645045 C9.25440952,4.78534579 6.05356169,2.38600807 2.83954998,-0.000101753084 C2.45070924,0.218667378 2.50133955,0.490348113 1.92010366,0.264456266 L1.92010366,0.32957824 C1.66391432,0.456769595 1.26393491,0.0792656526 1.06445151,0.461857249 C0.691812476,0.418103423 0.623967868,0.0680728133 0.210824587,0.0660377516 C0.148043009,0.224772563 -0.0534656012,0.241053056 0.0133664003,0.529014285 C0.0964000991,0.708099713 0.276643982,0.791537242 0.407270167,0.924833782 C4.80400578,3.55311595 8.49394235,6.89265217 12.3722236,10.0408926 C13.2542035,10.8732328 14.1098557,11.7310113 14.9381675,12.6172807 C15.335109,13.2298342 16.2069629,13.651092 16.3831563,14.5332913 C16.6130179,15.679031 16.1522822,16.8939628 16.2515176,18.1679114 C16.2089881,18.4996265 16.3375891,19.0033042 16.1856982,19.225126 C16.1755721,19.5659988 16.4530262,20.034063 16.3588538,20.2843756 C16.3618916,20.3494975 16.365942,20.4166546 16.3699925,20.4827941 C16.7122533,20.4247948 16.9350267,20.5021272 17.2256446,20.5031447 C17.224632,20.4827941 17.2236194,20.4593909 17.2226068,20.4380227 C17.2479219,18.9890588 17.196279,16.982488 17.5658802,15.5905058 C17.9820613,15.3727542 18.1957212,15.926291 18.4215324,16.1196218 C18.8964446,16.6548431 19.4564158,17.1045917 19.9333533,17.6387954 C20.2239712,17.8748625 20.4872488,18.1394206 20.7221734,18.4314519 L20.7221734,18.4975914 C21.0786107,18.8008156 21.4066951,19.1315131 21.7084517,19.4876489 C23.1898944,21.1207859 24.5994421,23.185356 26.1791076,25.2366982 C26.6702215,25.87469 27.386134,26.5574532 27.6261217,27.1527088 C27.8448446,27.6950527 27.8620589,28.8153541 27.9552187,29.7290968 C28.0574919,30.7293297 28.6296143,31.6318795 28.5283537,32.3146427 C28.4615217,32.7704965 28.2569753,33.3128405 28.0129372,33.7290106 C27.2767726,34.9805735 26.6550325,36.9321977 26.355301,37.9914473 C26.2874564,38.2336196 26.1892337,38.393372 25.7710273,38.4900374 C26.0616453,39.1504149 27.1167808,38.9438561 27.7911765,38.6243515 C27.0428606,38.2315846 27.4823316,37.0146177 27.8195294,36.0316829 C28.0423028,35.3845333 28.5384798,33.923359 29.0103542,34.4117738 C29.4012201,34.8167511 29.576401,36.3359246 29.9763804,38.0199381 C30.1515613,38.7545954 32.5180217,45.4672464 31.7747688,45.7043311 C31.7747688,45.7277343 31.7848949,45.6900856 31.7859075,45.7134888 C32.7276311,45.7714881 33.7817541,45.4509659 33.8131449,44.5128024 C32.3813199,44.7702377 30.8046922,37.7899762 30.5839441,36.5994651 C30.401675,35.6073725 29.8518299,34.1360229 29.6401952,33.2059997 C29.347552,31.9117005 29.1156652,30.3141771 28.941497,29.0677018 C30.6760912,31.2442003 32.072475,33.7615716 33.609611,36.1375061 C33.8820021,36.3766258 34.5229817,36.2891182 34.3974186,35.7406691 C32.7195303,33.1764913 31.1560665,30.4983502 29.4670395,27.9453653 C31.1874573,29.2325418 33.0476147,30.3803166 34.7923349,31.6451074 C35.0049822,31.3744442 35.2966128,31.1821309 35.4485037,30.8514334 L35.4485037,30.7852939 C34.1088258,30.2388798 33.0830559,29.3749961 31.9651388,28.6057428 C31.6522435,28.3462724 31.3677012,28.0603463 31.1094866,27.7469468 C28.3491224,25.8319537 26.6398434,22.8577111 24.5356479,20.2823405 C26.7107258,21.8829165 29.4791908,22.8902721 32.4906813,23.6503676 C32.5281477,23.3603713 32.9220515,22.9411486 32.6881395,22.7915716 C30.9373436,22.6002758 29.3738798,21.9124249 28.0200255,21.272398 C27.4742308,21.0139452 26.8393268,20.9305077 26.4423852,20.480759 C26.818062,20.1134304 27.6585251,19.966906 28.283303,19.819364 C28.974913,19.654524 29.6918381,19.5202099 30.3874985,19.422527 C30.607234,19.2871953 30.7226711,18.6430983 30.5181247,18.4314519 C29.810313,18.7458689 29.0103542,18.9117265 28.1516642,19.092847 C27.3537306,19.2607395 26.4626373,19.6402786 25.7193844,19.6209455 C24.3857822,19.5873669 23.5726595,18.3978734 22.5641039,17.9033534 C22.0750151,17.4688677 21.615292,17.0058912 21.1839218,16.5164589 C20.8710265,16.258006 20.5854716,15.9710623 20.3282696,15.6576628 C20.2594124,15.4836651 20.0680299,15.4348236 20.0001853,15.2598083 C17.692456,12.9968197 15.4140923,10.7083928 13.1620564,8.38944004 C13.0273798,8.37112448 13.0334554,8.21035461 12.8987788,8.19203905 C12.6304382,7.97734004 12.3904506,7.7351677 12.1757781,7.4645045" id="Fill-7"></path>
                    <path d="M34.0061476,44.5049675 C33.9413408,44.5100551 33.8745088,44.5141252 33.809702,44.5181954 C33.7732482,45.4563588 32.7160874,45.7687408 31.7753764,45.7046363 C30.18761,47.7325753 28.5664277,50.2560518 28.9147642,53.695306 C29.2023443,56.5382872 31.2609725,58.8969237 32.8234237,60.3987992 C33.0816382,60.5758496 33.313525,60.7824083 33.5211093,61.0184755 C35.3144346,62.4287732 38.5142699,63.1573253 41.4963948,62.1693029 C41.0761632,60.7193214 40.3825281,59.3497249 39.7820527,57.9089012 C38.0616349,53.7746734 36.3189399,49.2507313 34.9336947,44.5792472 C34.7483878,44.4123721 34.1853788,44.6769302 34.0061476,44.5049675" id="Fill-10"></path>
                    <path d="M39.788027,22.5942723 L35.9097457,22.5942723 C35.6677329,22.7458844 35.1432029,22.616658 34.7918286,22.6593943 C34.5214628,22.6085178 34.4546308,22.7611474 34.1994541,22.7265513 C34.0880674,22.8771459 33.6982141,22.7499546 33.4774659,22.7916733 C33.2060875,22.8679881 32.9600242,22.8679881 32.6876332,22.7916733 C32.9225578,22.9412504 32.5276414,23.3604731 32.490175,23.6504694 C34.2075549,25.6692505 36.4099732,27.2006345 38.5404964,28.8042631 C38.7389671,28.8459818 39.1055305,28.719808 39.1966651,28.8704026 L39.3941233,28.8704026 C39.6584135,28.9121213 40.0928215,28.78493 40.2487628,28.9355245 L40.3804016,28.9355245 C40.6659565,28.9782608 41.1226419,28.8490344 41.3008605,29.0026816 C42.4015633,29.0616984 43.2693668,29.3577998 44.1270441,29.6620416 C44.3558931,29.741409 44.6384102,29.7668472 44.7852381,29.9276171 C45.0333266,29.8981087 45.0940829,30.0568435 45.2449612,30.1250181 C45.6479785,30.2918932 46.0692226,30.4424877 46.3628783,30.7192561 C46.8236141,30.9176746 47.1496733,31.2514247 47.5466149,31.5129302 C48.2331618,32.0328884 48.8346498,32.6393368 49.3207007,33.3628012 C49.3419654,33.5174659 49.5495497,33.4849049 49.5181589,33.6924812 C49.8492811,33.9550042 50.0082602,34.3905074 50.1763529,34.8168528 C50.4608952,35.4100733 50.6300004,36.1223449 50.8335342,36.7979854 C53.4187175,38.0251276 56.458561,39.2013932 59.4457489,40.2331695 C60.4715189,40.5872702 61.5712091,40.7256544 62.7336809,40.9596865 C64.8814184,41.3931546 67.1071266,41.9253233 69.4391584,42.2814591 C71.8096692,42.6437 74.3847265,43.0140813 76.9344686,42.6772786 C77.6574693,42.5826482 79.09537,42.1440924 79.234097,41.554942 C79.4750973,40.5475865 78.5060332,40.0581542 78.3156633,39.3082339 C77.8144233,38.9093619 77.4407716,38.3812633 77.000288,37.9213394 L76.9344686,37.9213394 C76.6762541,37.6740794 76.3461445,37.4990641 76.1446359,37.1948224 C75.4925175,36.7715296 74.9325464,36.2546239 74.3047306,35.8058928 C74.0505665,35.5779659 73.7083056,35.4375466 73.5159105,35.1465328 L73.4490785,35.1465328 C73.044036,34.80566 72.5589977,34.5421195 72.2005352,34.1554578 C69.1505656,31.8680484 65.8109908,29.873688 62.2081383,28.142868 C61.8425875,27.9373268 61.4183056,27.7908023 61.0892086,27.54863 C55.5391147,25.0678898 49.2974108,23.2780531 41.8922225,22.6593943 C41.2117512,22.6156405 40.3581243,22.746902 39.788027,22.5942723" id="Fill-12"></path>
                    <path d="M25.7708248,38.4902409 C26.0614428,39.1496009 27.1175909,38.9440597 27.790974,38.624555 C27.8800833,38.8056755 28.0269112,38.9074285 28.1808273,38.9949362 C28.4248654,39.0905841 28.6385252,39.1994599 28.9018028,39.3073182 C29.2015342,39.4314569 29.6025262,39.5433853 29.8496021,39.9025737 C30.0197199,40.6524939 30.3133757,41.1734697 30.4996952,41.9203374 C30.7001912,42.7262218 31.1477631,43.8007344 31.1113093,44.6279869 C31.0697925,45.6292373 30.3427413,46.2702817 29.8263122,47.0619207 C29.4222824,47.6785444 29.094198,48.3226414 28.7995296,48.9982819 C28.163613,50.4523335 27.8264152,51.8595786 27.9448901,53.4560845 C28.0086843,54.3006351 28.2506971,55.0576781 28.5473907,55.8025106 C28.4947352,55.8228613 28.4471427,55.8401593 28.4117015,55.8513521 C28.2203189,55.9073163 28.130197,55.8890008 28.0674154,55.8421943 C27.8952724,55.8706852 27.7403437,55.9134215 27.6350326,55.9907538 C26.2842161,56.1718743 25.261484,55.8940884 24.3501385,55.4626553 C24.1212895,55.2489739 23.8691506,55.0668358 23.5947343,54.9172588 C22.2398674,53.4235235 20.8870257,51.9257181 20.3969243,49.2180686 L20.1832645,47.9156291 C20.1194703,43.3855818 21.4895263,39.8883283 25.7708248,38.4902409" id="Fill-14"></path>
                    <path d="M39.8533401,29.8610706 L39.4594364,29.8610706 L38.802255,29.8610706 C37.3167619,29.7817032 36.4519963,30.6618674 35.4485037,30.8521456 C35.2966128,31.1818256 35.0049822,31.374139 34.7923349,31.6448022 C33.9457962,32.7752789 34.2637546,34.0176841 35.0556125,34.9477073 C35.4981214,35.3394566 35.9153151,35.7576618 36.3041558,36.2023228 C36.4216181,36.3264616 36.5390804,36.4516179 36.6332528,36.6001774 C40.3161011,39.2854413 43.7579492,42.21186 47.2838436,45.0568762 C48.7956645,43.2833199 49.7434638,40.6265469 49.8467496,37.6563744 C49.6968839,37.5220603 49.8234596,37.1079252 49.7819428,36.8647354 C49.5105644,35.3302989 48.791614,34.2476461 48.0068443,33.2311327 C47.7374911,33.0164337 47.4975035,32.7732439 47.2838436,32.5035982 C45.493556,31.2194743 43.5058103,30.1337689 40.6421603,29.9272101 C40.4001474,29.8844738 39.9880167,30.0126827 39.8533401,29.8610706" id="Fill-16"></path>
                </g>
            </g>
        </g>
    </g>
</svg>