<?xml version="1.0" encoding="UTF-8"?>
<svg width="380px" height="46px" viewBox="0 0 380 46" version="1.1" xmlns="http://www.w3.org/2000/svg" xmlns:xlink="http://www.w3.org/1999/xlink">
    <!-- Generator: Sketch 43.2 (39069) - http://www.bohemiancoding.com/sketch -->
    <title>site_logo</title>
    <desc>Created with Sketch.</desc>
    <defs></defs>
    <g id="Page-1" stroke="none" stroke-width="1" fill="none" fill-rule="evenodd" fill-opacity="0.98">
        <g id="content_banner-copy" transform="translate(-182.000000, -32.000000)" fill="#FFFFFF">
            <g id="Group" transform="translate(75.000000, 29.000000)">
                <g id="site_logo" transform="translate(107.000000, 3.000000)">
                    <path d="M187.766025,25.2224762 C180.43298,25.2224762 175.070007,20.0189854 175.070007,12.7557795 C175.070007,5.49257361 180.43298,0.289082822 187.766025,0.289082822 C195.135552,0.289082822 200.498525,5.49257361 200.498525,12.7557795 C200.498525,20.0189854 195.135552,25.2224762 187.766025,25.2224762 Z M187.766025,20.6694217 C192.25341,20.6694217 195.172035,17.2365632 195.172035,12.7557795 C195.172035,8.23886042 192.25341,4.84213726 187.766025,4.84213726 C183.278639,4.84213726 180.396497,8.23886042 180.396497,12.7557795 C180.396497,17.2365632 183.278639,20.6694217 187.766025,20.6694217 Z M208.670674,24.788852 L208.670674,0.686571701 L204.037357,0.686571701 L204.037357,24.788852 L208.670674,24.788852 Z M215.565924,5.45643826 C217.098202,5.45643826 218.338618,4.22783627 218.338618,2.71015145 C218.338618,1.19246664 217.098202,0 215.565924,0 C214.070129,0 212.793231,1.19246664 212.793231,2.71015145 C212.793231,4.22783627 214.070129,5.45643826 215.565924,5.45643826 Z M217.900824,24.788852 L217.900824,7.3354766 L213.267507,7.3354766 L213.267507,24.788852 L217.900824,24.788852 Z M232.056153,24.788852 L239.133818,7.3354766 L234.135674,7.3354766 L229.53884,19.4769551 L224.942006,7.3354766 L219.980344,7.3354766 L227.058009,24.788852 L232.056153,24.788852 Z M249.494936,25.2224762 C244.131963,25.2224762 240.082371,21.6450763 240.082371,16.0440966 C240.082371,10.9851472 243.8401,6.90185237 249.203073,6.90185237 C254.456598,6.90185237 258.031913,10.8044705 258.031913,16.5138562 L258.031913,17.5256461 L244.934585,17.5256461 C245.226447,19.7299026 247.014105,21.5728056 250.005695,21.5728056 C251.50149,21.5728056 253.58101,20.9223692 254.711977,19.8383086 L256.755014,22.8014076 C255.00384,24.3913631 252.231146,25.2224762 249.494936,25.2224762 Z M253.544527,14.4180057 C253.435079,12.7557795 252.267629,10.551523 249.203073,10.551523 C246.320931,10.551523 245.080516,12.6835088 244.861619,14.4180057 L253.544527,14.4180057 Z M282.621325,25.2224762 C287.984298,25.2224762 291.048854,22.2955126 292.800029,19.2962783 L288.349126,17.1642925 C287.327608,19.1517369 285.138639,20.6694217 282.621325,20.6694217 C278.206906,20.6694217 274.996418,17.3088339 274.996418,12.7557795 C274.996418,8.20272506 278.206906,4.84213726 282.621325,4.84213726 C285.138639,4.84213726 287.327608,6.39595743 288.349126,8.34726648 L292.800029,6.17914531 C291.085337,3.17991104 287.984298,0.289082822 282.621325,0.289082822 C275.324764,0.289082822 269.669929,5.3480322 269.669929,12.7557795 C269.669929,20.1635268 275.324764,25.2224762 282.621325,25.2224762 Z M304.073216,25.2224762 C298.710244,25.2224762 294.660652,21.6450763 294.660652,16.0440966 C294.660652,10.9851472 298.418381,6.90185237 303.781354,6.90185237 C309.034878,6.90185237 312.610194,10.8044705 312.610194,16.5138562 L312.610194,17.5256461 L299.512865,17.5256461 C299.804728,19.7299026 301.592386,21.5728056 304.583976,21.5728056 C306.079771,21.5728056 308.159291,20.9223692 309.290258,19.8383086 L311.333295,22.8014076 C309.582121,24.3913631 306.809427,25.2224762 304.073216,25.2224762 Z M308.122808,14.4180057 C308.01336,12.7557795 306.84591,10.551523 303.781354,10.551523 C300.899212,10.551523 299.658797,12.6835088 299.4399,14.4180057 L308.122808,14.4180057 Z M332.493324,24.788852 L332.493324,12.4666967 C332.493324,9.06997353 330.632701,6.90185237 326.765523,6.90185237 C323.883381,6.90185237 321.730896,8.27499577 320.599929,9.61200382 L320.599929,7.3354766 L315.966612,7.3354766 L315.966612,24.788852 L320.599929,24.788852 L320.599929,13.0448623 C321.366067,11.9969371 322.788897,10.9851472 324.613037,10.9851472 C326.583109,10.9851472 327.860007,11.8162603 327.860007,14.237329 L327.860007,24.788852 L332.493324,24.788852 Z M343.000373,25.2224762 C344.933961,25.2224762 346.174377,24.7165813 346.86755,24.1022803 L345.882514,20.6332864 C345.627135,20.8862339 344.970444,21.1391813 344.277271,21.1391813 C343.255752,21.1391813 342.672027,20.3080682 342.672027,19.2240076 L342.672027,11.3465008 L346.247343,11.3465008 L346.247343,7.3354766 L342.672027,7.3354766 L342.672027,2.56561004 L338.002228,2.56561004 L338.002228,7.3354766 L335.083603,7.3354766 L335.083603,11.3465008 L338.002228,11.3465008 L338.002228,20.4526096 C338.002228,23.56025 339.753403,25.2224762 343.000373,25.2224762 Z M357.702944,25.2224762 C352.339972,25.2224762 348.29038,21.6450763 348.29038,16.0440966 C348.29038,10.9851472 352.048109,6.90185237 357.411082,6.90185237 C362.664606,6.90185237 366.239921,10.8044705 366.239921,16.5138562 L366.239921,17.5256461 L353.142593,17.5256461 C353.434456,19.7299026 355.222113,21.5728056 358.213704,21.5728056 C359.709499,21.5728056 361.789019,20.9223692 362.919986,19.8383086 L364.963023,22.8014076 C363.211848,24.3913631 360.439155,25.2224762 357.702944,25.2224762 Z M361.752536,14.4180057 C361.643088,12.7557795 360.475638,10.551523 357.411082,10.551523 C354.52894,10.551523 353.288525,12.6835088 353.069628,14.4180057 L361.752536,14.4180057 Z M374.229656,24.788852 L374.229656,13.2616744 C374.995795,12.1414785 377.038833,11.27423 378.57111,11.27423 C379.08187,11.27423 379.519663,11.3103654 379.848009,11.3826361 L379.848009,6.90185237 C377.65904,6.90185237 375.470072,8.16658971 374.229656,9.72040988 L374.229656,7.3354766 L369.59634,7.3354766 L369.59634,24.788852 L374.229656,24.788852 Z" id="Olive-Center"></path>
                    <g id="UCDAVIS" fill-rule="nonzero">
                        <path d="M94.8213588,7.57805918 L94.8213588,7.57805918 C94.984052,8.60477452 96.5948761,15.9735152 96.5948761,15.9735152 L93.0591173,15.9735152 L94.8213588,7.57805918 Z M81.406416,24.7106919 L90.7588605,24.7106919 L91.4644014,21.6849106 L98.1396564,21.6849106 L99.0304421,24.7106919 L108.382887,24.7106919 L99.6232253,0.628702971 L89.8181393,0.628702971 L81.406416,24.7106919 Z" id="Shape"></path>
                        <path d="M58.4473407,0.627149695 L67.5066152,0.627149695 C75.7330937,0.627149695 82.0153075,4.16395883 82.0153075,13.0129714 C82.0153075,20.1440609 76.892887,24.7075854 69.7005575,24.7075854 L58.4473407,24.6936059 L58.4473407,0.627149695 Z M67.3455328,17.7939545 L67.9512026,17.7939545 C70.9199514,17.7939545 73.1171154,16.1272895 73.1171154,12.9850125 C73.1171154,9.60042435 71.1680183,7.7116409 67.9077104,7.7116409 L67.3455328,7.7116409 L67.3455328,17.7939545 Z" id="Shape"></path>
                        <path d="M53.0623558,1.38204176 L53.5391597,5.33512883 C53.6535282,6.27330745 54.2253708,8.5224509 53.5214407,8.22111539 C53.0768532,8.03316901 52.712807,7.01577332 52.3519824,6.10866021 C52.1683485,5.65044383 51.2920602,3.47585763 51.0617123,3.31431694 C49.9582978,2.53612573 47.1941238,1.66163142 45.3255678,1.65386504 C39.6538563,1.63367245 35.9070796,5.55103418 35.9070796,12.4988371 C35.9070796,17.4817461 38.4554032,23.466518 44.9389701,23.466518 C47.2601675,23.466518 51.706042,22.7768635 52.9157708,19.6842912 C53.4618402,18.2847897 53.9628065,17.0375092 54.3268527,17.4180618 C54.5942495,17.6914383 54.2463115,18.8144568 54.0852291,19.4186811 C53.3216985,22.2875816 53.2782062,23.1558628 53.0381935,23.2692519 C50.1097153,24.6439011 46.3532736,25.0974576 43.0655817,25.0974576 C32.6193876,25.0974576 29.0095309,19.3860623 29.0095309,13.6762202 C29.0095309,3.76787349 35.5043735,-0.335881339 45.5784672,0.0213721093 C48.1235692,0.111462109 50.6735037,0.540166247 53.0623558,1.38204176" id="Shape"></path>
                        <path d="M22.2037993,1.82161883 L20.5301531,1.27486573 C19.9663646,0.799563316 20.6509649,0.667534868 20.6509649,0.667534868 C20.6509649,0.667534868 23.067201,1.08847263 29.091683,0.611616937 C29.091683,0.611616937 29.6200332,0.70792004 29.2575978,1.10711194 L27.2795059,1.9008359 C25.9940683,2.42584314 25.9940683,2.12295435 25.9940683,3.44479211 L25.9827925,15.7172247 C25.9827925,25.3149162 15.5607608,25.0990109 13.5311225,25.0990109 C12.5646281,25.0990109 3.08009601,25.0990109 3.08009601,17.3932094 L3.08009601,4.40471659 C3.08009601,2.13693383 3.33621703,2.20061814 2.53563748,1.9334547 L0.114568911,1.08225952 C0.114568911,1.08225952 -0.294580401,0.541719523 0.433512075,0.574338316 C2.4099932,0.667534868 5.27242756,1.06517349 11.9235201,0.611616937 C11.9235201,0.611616937 12.5066384,0.743645385 12.1248731,1.14283728 L10.1902734,1.6693978 C8.65999056,2.31245401 8.86134357,1.82161883 8.82268379,3.29257107 L8.86778686,16.1024371 C8.86778686,19.2431609 10.5913686,23.1310104 15.9473586,23.1310104 C23.3329869,23.1310104 23.4006415,17.1446852 23.4006415,15.8150811 L23.415139,3.12947711 C23.4940693,1.9334547 23.3313761,2.27362211 22.2037993,1.82161883" id="Shape"></path>
                        <path d="M141.188929,22.8607404 L143.766248,16.47367 L144.218889,16.8324768 C145.800719,18.0440319 147.951169,19.0738538 149.977585,19.1157923 C151.791373,19.1515176 152.675716,18.6995144 152.437314,17.2658407 C152.25368,16.1878673 150.961799,16.0030275 150.154776,15.8508064 L148.379648,15.5199587 C144.927652,14.9157344 142.02978,12.9228814 142.02978,9.1468678 C142.02978,3.43547245 147.284288,0.235724178 152.571012,0.235724178 C155.349684,0.235724178 157.894786,0.894313144 160.280416,2.34817935 L158.03976,8.01142314 C156.812312,7.18352711 154.95181,6.01546366 152.601618,5.93469332 C151.82359,5.90673435 150.054905,6.29039349 150.620304,7.97259125 C150.86515,8.6902047 151.962121,8.99309349 152.637056,9.14531452 L154.636089,9.59887107 C158.379644,10.4158942 161.082607,12.4103004 161.082607,16.4829897 C161.082607,22.2285571 155.797493,25.0710519 150.544596,25.0710519 C147.480808,25.0710519 143.930552,24.2524756 141.188929,22.8607404" id="Shape"></path>
                        <rect id="Rectangle-path" x="130.443122" y="0.628702971" width="8.84503492" height="24.081989"></rect>
                        <polygon id="Shape" points="120.301374 0.627149695 129.516898 0.627149695 120.103242 24.7075854 112.624186 24.7075854 103.237915 0.627149695 112.426055 0.627149695 116.361298 15.1580454"></polygon>
                    </g>
                    <text id="at-the-Robert-Mondav" font-family="ProximaNova-LightIt, Proxima Nova" font-size="18" font-style="italic" font-weight="300">
                        <tspan x="3" y="45">at the Robert Mondavi Institute</tspan>
                    </text>
                </g>
            </g>
        </g>
    </g>
</svg>
