<?xml version="1.0" encoding="UTF-8"?>
<svg width="154px" height="25px" viewBox="0 0 154 25" version="1.1" xmlns="http://www.w3.org/2000/svg" xmlns:xlink="http://www.w3.org/1999/xlink">
    <!-- Generator: Sketch 47.1 (45422) - http://www.bohemiancoding.com/sketch -->
    <title>UCDAVIS</title>
    <desc>Created with Sketch.</desc>
    <defs></defs>
    <g id="Page-1" stroke="none" stroke-width="1" fill="none" fill-rule="evenodd">
        <g id="Content" transform="translate(-100.000000, -37.000000)" fill-rule="nonzero" fill="#002855">
            <g id="site_logo" transform="translate(100.000000, 31.000000)">
                <g id="UCDAVIS" transform="translate(0.000000, 6.000000)">
                    <path d="M90.1388226,7.28659536 L90.1388226,7.28659536 C90.2934815,8.27382166 91.8247587,15.3591492 91.8247587,15.3591492 L88.4636053,15.3591492 L90.1388226,7.28659536 Z M77.3863461,23.7602807 L86.2769415,23.7602807 L86.9476409,20.8508755 L93.2932536,20.8508755 L94.1400499,23.7602807 L103.030645,23.7602807 L94.7035599,0.604522088 L85.3826756,0.604522088 L77.3863461,23.7602807 Z" id="Shape"></path>
                    <path d="M55.5610522,0.603028553 L64.1729552,0.603028553 C71.9931878,0.603028553 77.9651689,4.00380657 77.9651689,12.5124725 C77.9651689,19.3692893 73.0957074,23.7572936 66.2585547,23.7572936 L55.5610522,23.7438518 L55.5610522,0.603028553 Z M64.0198274,17.1095717 L64.5955877,17.1095717 C67.4177315,17.1095717 69.5063936,15.5070092 69.5063936,12.4855889 C69.5063936,9.23117726 67.6535482,7.41503933 64.5542432,7.41503933 L64.0198274,7.41503933 L64.0198274,17.1095717 Z" id="Shape"></path>
                    <path d="M50.4419926,1.32888631 L50.8952506,5.12993157 C51.0039713,6.0320264 51.5475747,8.19466433 50.8784066,7.90491864 C50.4557741,7.72420097 50.1097054,6.74593588 49.7666993,5.87371174 C49.5921337,5.43311907 48.7591189,3.34217079 48.5401463,3.18684321 C47.4912214,2.43858243 44.8635497,1.59772252 43.0872682,1.59025485 C37.6956412,1.5708389 34.1338904,5.33753286 34.1338904,12.0181126 C34.1338904,16.8093712 36.556371,22.5639596 42.7197617,22.5639596 C44.9263321,22.5639596 49.1526572,21.9008303 50.3026463,18.9272031 C50.8217493,17.5815286 51.2979765,16.3822204 51.6440452,16.7481363 C51.8982372,17.0109984 51.5674813,18.0908238 51.4143536,18.6718087 C50.6885282,21.4303669 50.6471837,22.2652527 50.4190234,22.3742807 C47.6351615,23.6960587 44.0642231,24.1321708 40.9388863,24.1321708 C31.0085537,24.1321708 27.5769615,18.6404445 27.5769615,13.1502117 C27.5769615,3.62295528 33.7510711,-0.322962826 43.3276787,0.0205501051 C45.7470967,0.107175105 48.1711085,0.519390622 50.4419926,1.32888631" id="Shape"></path>
                    <path d="M21.1073154,1.75155657 L19.5163183,1.22583243 C18.9803713,0.768810881 19.6311641,0.64186045 19.6311641,0.64186045 C19.6311641,0.64186045 21.9280799,1.04660829 27.6550566,0.588093209 C27.6550566,0.588093209 28.1573156,0.680692346 27.8127782,1.06453071 L25.9323698,1.82772683 C24.7104106,2.33254148 24.7104106,2.04130226 24.7104106,3.31230011 L24.6996917,15.1127161 C24.6996917,24.3412656 14.7923282,24.1336643 12.8629189,24.1336643 C11.9441526,24.1336643 2.9279925,24.1336643 2.9279925,16.7242398 L2.9279925,4.23530442 C2.9279925,2.05474407 3.17146558,2.11597898 2.41042081,1.85909105 L0.108911187,1.04063416 C0.108911187,1.04063416 -0.280033221,0.520884157 0.412104071,0.552248381 C2.29098119,0.64186045 5.01206076,1.02420528 11.3347043,0.588093209 C11.3347043,0.588093209 11.8890266,0.71504364 11.5261139,1.098882 L9.68705004,1.60519019 C8.2323367,2.22351347 8.42374635,1.75155657 8.3869957,3.16593373 L8.42987146,15.4831126 C8.42987146,18.5030393 10.0683381,22.2413561 15.1598347,22.2413561 C22.1807407,22.2413561 22.2450543,16.4852742 22.2450543,15.2068087 L22.2588358,3.00911261 C22.3338684,1.85909105 22.1792094,2.18617511 21.1073154,1.75155657" id="Shape"></path>
                    <path d="M134.216637,21.9814811 L136.66668,15.8400673 L137.096969,16.1850738 C138.600683,17.3500307 140.644938,18.3402441 142.571285,18.3805695 C144.295503,18.4149208 145.136174,17.9803023 144.909545,16.6017699 C144.73498,15.565257 143.506895,15.3875264 142.739725,15.24116 L141.052258,14.9230372 C137.770731,14.3420523 135.015963,12.4258475 135.015963,8.79506519 C135.015963,3.3033389 140.010989,0.226657864 145.036641,0.226657864 C147.678094,0.226657864 150.097512,0.859916484 152.365334,2.25786476 L150.235327,7.70329148 C149.068494,6.90723761 147.299869,5.78409967 145.065736,5.70643588 C144.326129,5.67955226 142.644786,6.04845528 143.182265,7.66595312 C143.415019,8.35596605 144.457818,8.64720528 145.099424,8.79357166 L146.999739,9.22968373 C150.558427,10.0152829 153.12791,11.9329811 153.12791,15.8490286 C153.12791,21.3736126 148.103789,24.1067807 143.110295,24.1067807 C140.197805,24.1067807 136.82287,23.319688 134.216637,21.9814811" id="Shape"></path>
                    <rect id="Rectangle-path" x="124.001486" y="0.604522088" width="8.40824307" height="23.1557586"></rect>
                    <polygon id="Shape" points="114.360565 0.603028553 123.121002 0.603028553 114.172218 23.7572936 107.062498 23.7572936 98.1397459 0.603028553 106.874151 0.603028553 110.615061 14.5750436"></polygon>
                </g>
            </g>
        </g>
    </g>
</svg>