<?xml version="1.0" encoding="UTF-8"?>
<svg width="204px" height="32px" viewBox="0 0 204 32" version="1.1" xmlns="http://www.w3.org/2000/svg" xmlns:xlink="http://www.w3.org/1999/xlink">
    <!-- Generator: Sketch 47.1 (45422) - http://www.bohemiancoding.com/sketch -->
    <title>UCDAVIS</title>
    <desc>Created with Sketch.</desc>
    <defs></defs>
    <g id="Page-1" stroke="none" stroke-width="1" fill="none" fill-rule="evenodd">
        <g id="home" transform="translate(-105.000000, -43.000000)" fill-rule="nonzero" fill="#FFFFFF">
            <g id="site_logo" transform="translate(105.000000, 41.000000)">
                <g id="UCDAVIS" transform="translate(0.000000, 2.000000)">
                    <path d="M119.662215,9.53670608 L119.662215,9.53670608 C119.86753,10.8287892 121.90035,20.1020758 121.90035,20.1020758 L117.43831,20.1020758 L119.662215,9.53670608 Z M102.732888,31.0974882 L114.535442,31.0974882 L115.425818,27.2896547 L123.849825,27.2896547 L124.973974,31.0974882 L136.776528,31.0974882 L125.722052,0.791199344 L113.348275,0.791199344 L102.732888,31.0974882 Z" id="Shape"></path>
                    <path d="M73.7591016,0.789244604 L85.1916825,0.789244604 C95.5732954,0.789244604 103.501294,5.24018757 103.501294,16.3763413 C103.501294,25.3505526 97.0369259,31.0935788 87.9603837,31.0935788 L73.7591016,31.0759861 L73.7591016,0.789244604 Z M84.9884005,22.393031 L85.7527409,22.393031 C89.4992286,22.393031 92.2719954,20.295595 92.2719954,16.341156 C92.2719954,12.0817776 89.8122829,9.70481372 85.6978548,9.70481372 L84.9884005,9.70481372 L84.9884005,22.393031 Z" id="Shape"></path>
                    <path d="M66.9633837,1.73924824 L67.5650984,6.71406153 C67.7094287,7.89472449 68.4310799,10.725188 67.5427374,10.3459684 C66.981679,10.1094449 66.5222617,8.82909021 66.0669099,7.68752205 C65.8351684,7.11087375 64.7293142,4.37423776 64.4386209,4.1709448 C63.0461391,3.19162006 59.5578196,2.09110144 57.1997482,2.08132774 C50.0421882,2.05591612 45.3138484,6.98577039 45.3138484,15.7293224 C45.3138484,22.0001283 48.5297699,29.5317415 56.7118713,29.5317415 C59.6411652,29.5317415 65.251749,28.6638369 66.778397,24.7719496 C67.4675231,23.0107289 68.0997302,21.4410727 68.5591475,21.919984 C68.8965957,22.2640182 68.4575065,23.6772952 68.2542245,24.4376891 C67.2906677,28.0480938 67.2357816,29.1407935 66.9328914,29.2834895 C63.2372242,31.0134344 58.4966875,31.5842185 54.3477014,31.5842185 C41.1648623,31.5842185 36.6093122,24.3966395 36.6093122,17.2110153 C36.6093122,4.74172887 44.8056433,-0.422694193 57.5189009,0.0268960059 C60.7307569,0.140270926 63.9487113,0.679779164 66.9633837,1.73924824" id="Shape"></path>
                    <path d="M28.0206468,2.29243966 L25.9085466,1.60437118 C25.1970595,1.00622074 26.0610081,0.840067844 26.0610081,0.840067844 C26.0610081,0.840067844 29.1102384,1.36980238 36.712986,0.769697204 C36.712986,0.769697204 37.379751,0.890891084 36.9223665,1.39325926 L34.4260633,2.3921314 C32.8038727,3.05283352 32.8038727,2.67165922 32.8038727,4.33514296 L32.789643,19.7795437 C32.789643,31.8578821 19.6372962,31.5861732 17.0759427,31.5861732 C15.8562506,31.5861732 3.88700516,31.5861732 3.88700516,21.8887081 L3.88700516,5.54317227 C3.88700516,2.68925188 4.21022357,2.76939622 3.19991192,2.43318094 L0.144583138,1.36198342 C0.144583138,1.36198342 -0.371753197,0.681733904 0.547081541,0.722783444 C3.04135195,0.840067844 6.65367347,1.34048128 15.0471881,0.769697204 C15.0471881,0.769697204 15.7830691,0.935850104 15.3012907,1.43821828 L12.8598736,2.10087514 C10.9286944,2.9101375 11.1827969,2.29243966 11.1340092,4.14357844 L11.1909282,20.2643192 C11.1909282,24.2168034 13.3660458,29.1095177 20.125173,29.1095177 C29.4456537,29.1095177 29.5310322,21.5759497 29.5310322,19.9026923 L29.5493276,3.93833074 C29.6489358,2.43318094 29.4436209,2.861269 28.0206468,2.29243966" id="Shape"></path>
                    <path d="M178.176945,28.7693929 L181.429457,20.731502 L182.00068,21.183047 C183.996909,22.7077442 186.710724,24.0037368 189.268012,24.0565148 C191.556968,24.1014738 192.672986,23.5326445 192.372128,21.7284194 C192.140387,20.3718299 190.510065,20.1392158 189.491622,19.9476513 L187.251454,19.5312917 C182.895121,18.7708978 179.238077,16.2629664 179.238077,11.5109935 C179.238077,4.32341452 185.869137,0.296650125 192.540853,0.296650125 C196.047467,0.296650125 199.259323,1.12545988 202.26993,2.95509652 L199.442277,10.0820785 C197.893268,9.04020212 195.545361,7.57023765 192.579476,7.46859117 C191.597624,7.43340585 189.365587,7.91622663 190.079107,10.03321 C190.388096,10.9362999 191.772446,11.3174742 192.624198,11.5090387 L195.146928,12.0798228 C199.871202,13.1080161 203.282275,15.6179022 203.282275,20.7432305 C203.282275,27.9738137 196.612591,31.5509879 189.983565,31.5509879 C186.117141,31.5509879 181.636805,30.5208399 178.176945,28.7693929" id="Shape"></path>
                    <rect id="Rectangle-path" x="164.616001" y="0.791199344" width="11.1622158" height="30.3062889"></rect>
                    <polygon id="Shape" points="151.817365 0.789244604 163.44713 0.789244604 151.567328 31.0935788 142.128944 31.0935788 130.283701 0.789244604 141.878907 0.789244604 146.845087 19.0758373"></polygon>
                </g>
            </g>
        </g>
    </g>
</svg>