<?xml version="1.0" encoding="UTF-8"?>
<svg width="154px" height="24px" viewBox="0 0 154 24" version="1.1" xmlns="http://www.w3.org/2000/svg" xmlns:xlink="http://www.w3.org/1999/xlink">
    <!-- Generator: Sketch 47.1 (45422) - http://www.bohemiancoding.com/sketch -->
    <title>UCDAVIS</title>
    <desc>Created with Sketch.</desc>
    <defs></defs>
    <g id="Page-1" stroke="none" stroke-width="1" fill="none" fill-rule="evenodd">
        <g id="home" transform="translate(-105.000000, -48.000000)" fill-rule="nonzero" fill="#FFFFFF">
            <g id="site_logo" transform="translate(105.000000, 41.000000)">
                <g id="UCDAVIS" transform="translate(0.000000, 7.000000)">
                    <path d="M90.3332407,7.15252956 L90.3332407,7.15252956 C90.4882333,8.12159192 92.0228132,15.0765568 92.0228132,15.0765568 L88.6544102,15.0765568 L90.3332407,7.15252956 Z M77.5532587,23.3231162 L86.46303,23.3231162 L87.135176,20.467241 L93.4944754,20.467241 L94.3430982,23.3231162 L103.252869,23.3231162 L94.9078236,0.593399508 L85.5668353,0.593399508 L77.5532587,23.3231162 Z" id="Shape"></path>
                    <path d="M55.6808905,0.591933453 L64.3113682,0.591933453 C72.1484681,0.591933453 78.13333,3.93014068 78.13333,12.282256 C78.13333,19.0129145 73.2533657,23.3201841 66.4014661,23.3201841 L55.6808905,23.3069896 L55.6808905,0.591933453 Z M64.1579102,16.7947733 L64.7349123,16.7947733 C67.5631431,16.7947733 69.6563102,15.2216963 69.6563102,12.255867 C69.6563102,9.06133317 67.7994685,7.27861029 64.6934786,7.27861029 L64.1579102,7.27861029 L64.1579102,16.7947733 Z" id="Shape"></path>
                    <path d="M50.5507896,1.30443618 L51.0050253,5.03554615 C51.1139805,5.92104337 51.6587564,8.043891 50.9881449,7.75947633 C50.5646008,7.58208368 50.2177858,6.62181765 49.8740399,5.76564154 C49.6990977,5.33315531 48.8642862,3.28067832 48.6448413,3.1282086 C47.593654,2.39371504 44.9603148,1.56832608 43.180202,1.56099581 C37.776946,1.54193709 34.207513,5.23932779 34.207513,11.7969918 C34.207513,16.5000962 36.6352185,22.1488061 42.8119028,22.1488061 C45.0232326,22.1488061 49.2586733,21.4978777 50.4111428,18.5789622 C50.9313655,17.2580467 51.4086198,16.0808045 51.7554349,16.439988 C52.0101752,16.6980136 51.6787059,17.7579714 51.5252479,18.3282668 C50.797857,21.0360704 50.7564233,21.8555951 50.5277709,21.9626171 C47.7379045,23.2600758 44.1592641,23.6881639 41.0271863,23.6881639 C31.0754353,23.6881639 27.6364416,18.2974796 27.6364416,12.9082615 C27.6364416,3.55629666 33.823868,-0.317020645 43.4211311,0.0201720044 C45.8457674,0.105203194 48.2750075,0.509834373 50.5507896,1.30443618" id="Shape"></path>
                    <path d="M21.1528412,1.71932975 L19.5584126,1.20327839 C19.0213096,0.754665558 19.6735061,0.630050883 19.6735061,0.630050883 C19.6735061,0.630050883 21.9753761,1.02735179 27.7147051,0.577272903 C27.7147051,0.577272903 28.2180474,0.668168313 27.8727669,1.04494445 L25.9883027,1.79409855 C24.7637079,2.28962514 24.7637079,2.00374441 24.7637079,3.25135722 L24.7529658,14.8346577 C24.7529658,23.8934116 14.8242334,23.6896299 12.8906626,23.6896299 C11.9699147,23.6896299 2.93430781,23.6896299 2.93430781,16.4165311 L2.93430781,4.1573792 C2.93430781,2.01693891 3.17830603,2.07704716 2.41561979,1.82488571 L0.109146094,1.02148757 C0.109146094,1.02148757 -0.280637217,0.511300428 0.412992928,0.542087583 C2.29592255,0.630050883 5.02287115,1.00536096 11.3591518,0.577272903 C11.3591518,0.577272903 11.9146698,0.701887578 11.5509743,1.07866371 L9.70794379,1.57565636 C8.25009282,2.18260312 8.44191532,1.71932975 8.4050854,3.10768383 L8.44805364,15.1982394 C8.44805364,18.1626026 10.0900542,21.8321382 15.1925326,21.8321382 C22.2285817,21.8321382 22.2930341,16.1819623 22.2930341,14.9270192 L22.3068453,2.95374805 C22.3820397,1.82488571 22.2270472,2.14595175 21.1528412,1.71932975" id="Shape"></path>
                    <path d="M134.506125,21.5770447 L136.961453,15.5486265 L137.39267,15.8872852 C138.899628,17.0308081 140.948292,18.0028026 142.878793,18.0423861 C144.60673,18.0761053 145.449215,17.6494833 145.222097,16.2963146 C145.047155,15.2788724 143.816422,15.1044119 143.047597,14.9607385 L141.35649,14.6484688 C138.067885,14.0781734 135.307176,12.1972248 135.307176,8.63324511 C135.307176,3.24256089 140.312976,0.222487594 145.349467,0.222487594 C147.996618,0.222487594 150.421254,0.844094913 152.693967,2.21632239 L150.559366,7.56155891 C149.390016,6.78015159 147.617576,5.67767824 145.378624,5.60144338 C144.637422,5.57505439 142.952453,5.93716997 143.491091,7.52490753 C143.724347,8.20222494 144.769396,8.48810566 145.412385,8.63177905 L147.316799,9.05986711 C150.883162,9.83101204 153.458188,11.7134267 153.458188,15.5574229 C153.458188,20.9803603 148.423231,23.6632409 143.418966,23.6632409 C140.500194,23.6632409 137.11798,22.89063 134.506125,21.5770447" id="Shape"></path>
                    <rect id="Rectangle-path" x="124.268942" y="0.593399508" width="8.4263786" height="22.7297167"></rect>
                    <polygon id="Shape" points="114.607227 0.591933453 123.386559 0.591933453 114.418473 23.3201841 107.293418 23.3201841 98.351421 0.591933453 107.104665 0.591933453 110.853644 14.3068779"></polygon>
                </g>
            </g>
        </g>
    </g>
</svg>