<?xml version="1.0" encoding="utf-8"?>
<!-- Generator: Adobe Illustrator 22.1.0, SVG Export Plug-In . SVG Version: 6.00 Build 0)  -->
<svg version="1.1" id="Layer_1" xmlns="http://www.w3.org/2000/svg" xmlns:xlink="http://www.w3.org/1999/xlink" x="0px" y="0px"
	 viewBox="0 0 1987 246.4" style="enable-background:new 0 0 1987 246.4;" xml:space="preserve">
<style type="text/css">
	.st0{clip-path:url(#SVGID_2_);fill:#B0BC22;}
	.st1{clip-path:url(#SVGID_2_);}
</style>
<g>
	<defs>
		<rect id="SVGID_1_" width="1987" height="246.4"/>
	</defs>
	<clipPath id="SVGID_2_">
		<use xlink:href="#SVGID_1_"  style="overflow:visible;"/>
	</clipPath>
	<path class="st0" d="M1837.6,197.3c1.7-1.1,9,3.2,12.2,6.9c3.3,3.8,7.4,9.5,6.8,19c-0.3,3.5-2.1,2.5-3-2.2
		c-1.2-5.8-6.7-10.8-10.4-14.2C1839.4,203.4,1833.9,199.6,1837.6,197.3 M1756.6,153.3c1.5-4.1,13.5,1.9,19.5,9.3
		c6,7.2,7.9,21.3,5.8,22.3c-2,1.1-2.6-3.5-5-9.1c-2.5-5.6-5.9-11-10.2-14C1760.9,157.8,1756,155.2,1756.6,153.3 M1647.6,65.9
		c-5.5-6.6-10.2-7.5-9.4-9.3c1.4-3.1,13.2,3.1,18.7,10.9c5.3,7.8,6,22,3.9,22.8c-2.1,0.8-2.3-3.8-4.3-9.6
		C1654.6,75,1650.8,69.8,1647.6,65.9 M1907.9,151.7c12.3,10.9,39.2,27,79.2,19.5c-12.3-7.1-25.9-22.5-34.5-31.7
		c-8.5-9.2-23.9-27.6-65.9-17.7c-16.4-5.4-34.8-11.9-46.5-11.6c30.7-9.6,58.8-18.3,70.7-40.6c3.1-5.8,6.8-12.3,9.5-13.3
		c-21.8-1-69.6-3.4-95.6,51.5c-10.9-0.3-47.4,3.8-61.1,7.2c18.1-20.5,38.9-43.3,24.2-88.7c-17.7,17.4-42.7,48-45.4,62.8
		c-2.3,12.4,0.7,20.1,4.5,26.6c-9.9,11.9-19.5,18.1-31.1,22.9c-11.6,4.8-28,12.6-44.4,21.2c-16.4,8.5-32.1,18.1-39.6,20.5
		c5.4-7.9,14.3-18.4,17.1-29c15,1.7,25.2,3.1,47.8-9.9c22.5-13,30.6-19.5,39.5-22.5c-25.9-6.5-51.5-13.9-81.6,10.6
		c-0.7-4.4-0.3-7.5-0.7-10.3c0-0.4-0.1-1-0.3-1.6c15.7-7.1,21.6-28.5,13.3-48.2c-8.4-20-28.4-30.7-44.5-23.9
		c-16.1,6.8-22.3,28.5-14,48.5c7.6,18.2,24.8,28.6,39.9,25.3c1.4,13.4-1,29.5-14.6,45.3c-10,11.5-17,13.6-16,19.1
		c-18.4,3.8-28,3.1-43,1c-15-2-22.9-1.4-24.6,5.1c-0.9,3.3,3,6.2,10.6,6.8c7.5,0.7,37,3,62.1-4.8c37.6-11.6,67.3-32.1,77.5-38.9
		c10.1-6.7,20.4-15,33.1-6c-11.1,10.5-12,30.1-1.4,46.3c11.6,17.7,32.6,24.6,46.9,15.2c14.4-9.4,16.6-31.3,5.1-49.1
		c-10.2-15.7-27.7-22.8-41.5-17.9c-2.3-1.2-5.3-3.6-9.7-4.5c13-8.2,33.8-19.8,59.4-17.7c0.3,15.7,2.8,50.7,40.5,63.3
		c-4.8-0.2-9.5,1-13.7,3.7c-12.6,8.2-14.6,27.6-4.4,43.3c10.2,15.6,28.8,21.7,41.4,13.5c12.7-8.3,14.6-27.7,4.4-43.3
		c-4.2-6.5-9.8-11.3-15.9-14.1c6.5,1.1,13.7,1.7,21.8,1.6c-7.5-8.2-17.9-26.2-22.9-36.2c-8.3-16.7-22.9-30.4-34-33.2
		c17.1-1.6,55.2,2.2,55.5,15.1c0.3,13-2.9,35.4,14.6,52.6c13.1,12.9,30.1,19.8,44.1,18.1c-7.9-7.8-13.6-21.2-17.4-30
		c-3.8-8.8-10.6-18.8-19.1-26.3c-8.5-7.5-14.4-16.3-14.4-21.5C1892.5,131.9,1895.5,140.8,1907.9,151.7"/>
	<path class="st1" d="M324.9,34.3c-45.5,0-82.5,36.9-82.5,82.2c0,45.5,36.9,82.5,82.3,82.5c44.4,0,81.9-37.8,81.9-82.5
		C406.5,70.4,370.6,34.3,324.9,34.3 M324.9,233.3c-65.1,0-118.1-52.4-118.1-116.8C206.7,52.2,259.9,0,325.2,0
		C390.7,0,442,51.2,442,116.5C442,181,389.5,233.3,324.9,233.3"/>
	<polygon class="st1" points="552.5,231.1 545.9,231.1 485.7,231.1 479,231.1 479,224.4 479,37.6 479,31 485.7,31 505,31 511.6,31 
		511.6,37.6 511.6,199.6 545.9,199.6 552.5,199.6 552.5,206.2 552.5,224.4 	"/>
	<polygon class="st1" points="616.9,231.1 610.3,231.1 590.9,231.1 584.3,231.1 584.3,224.4 584.3,37.6 584.3,31 590.9,31 610.3,31 
		616.9,31 616.9,37.6 616.9,224.4 	"/>
	<polygon class="st1" points="715,246.2 708.8,229.6 638,40 634.6,31 644.1,31 665.2,31 669.8,31 671.4,35.3 715,151.8 758.7,35.3 
		760.3,31 764.9,31 785.9,31 795.4,31 792.1,40 721.2,229.6 	"/>
	<polygon class="st1" points="891.9,231.1 885.3,231.1 825.1,231.1 818.4,231.1 818.4,224.4 818.4,37.6 818.4,31 825.1,31 885,31 
		891.7,31 891.7,37.6 891.7,55.8 891.7,62.5 885,62.5 851.1,62.5 851.1,111.9 885.3,111.9 891.9,111.9 891.9,118.6 891.9,136.8 
		891.9,143.4 885.3,143.4 851.1,143.4 851.1,199.6 885.3,199.6 891.9,199.6 891.9,206.2 891.9,224.4 	"/>
	<path class="st1" d="M1061.2,37.2v60.4c21.2-2.6,30-12.1,30-31.6C1091.2,49.7,1082.4,41,1061.2,37.2 M1061.2,231.1h-6.6h-22.3h-6.7
		v-6.6V6.7V0h6.7c60,0,94.5,23.4,94.5,64.2c0,32.3-17.4,56.5-47.9,66.4c-6.3,2-12.2,3.3-17.7,3.9v90V231.1z"/>
	<path class="st1" d="M1202.8,63.3v50.3c17.4-2.3,24.3-10.1,24.3-26.4C1227.1,73.8,1220,66.5,1202.8,63.3 M1270,231h-10.2h-21.8
		h-4.3l-1.7-4l-29-66.1v63.5v6.6h-6.6h-19.3h-6.6v-6.6V35.7V29h6.6c52.6,0,82.8,20.5,82.8,56.2c0,24.9-10.7,43.6-30.4,53.3
		l36.5,83.2L1270,231z"/>
	<polygon class="st1" points="1381.5,231.1 1374.9,231.1 1314.7,231.1 1308.1,231.1 1308.1,224.4 1308.1,37.6 1308.1,31 1314.7,31 
		1374.6,31 1381.2,31 1381.2,37.6 1381.2,55.8 1381.2,62.5 1374.6,62.5 1340.6,62.5 1340.6,111.9 1374.9,111.9 1381.5,111.9 
		1381.5,118.6 1381.5,136.8 1381.5,143.4 1374.9,143.4 1340.6,143.4 1340.6,199.6 1374.9,199.6 1381.5,199.6 1381.5,206.2 
		1381.5,224.4 	"/>
	<path class="st1" d="M1406.6,234.4v-6.8v-18.2v-6.4l6.4-0.2c37.3-1.3,55.5-11.2,55.5-30.4c0-14.8-12.2-22.7-26.2-31.8
		c-17.1-11-36.5-23.6-36.5-51.4c0-38.6,37.1-58.6,73.9-61.2l7.1-0.6v7.1v18.2V59l-6.1,0.4c-12.9,0.9-42.8,5.4-42.8,28.7
		c0,11.4,9.2,18,24.2,27.9c17.2,11.2,38.5,25.2,38.5,55.3c0,37.6-32.5,61.1-87,62.9L1406.6,234.4z"/>
	<path class="st1" d="M1517,234.4v-6.8v-18.2v-6.4l6.4-0.2c37.3-1.3,55.5-11.3,55.5-30.4c0-14.8-12.2-22.7-26.3-31.8
		c-17.1-11.1-36.5-23.6-36.5-51.4c0-38.6,37.1-58.6,73.9-61.2l7.1-0.5v7.1v18.2v6.2l-6.2,0.4c-12.9,0.8-42.8,5.4-42.8,28.7
		c0,11.4,9.2,18,24.2,27.9c17.2,11.2,38.5,25.2,38.5,55.3c0,37.7-32.5,61.2-87.1,62.9L1517,234.4z"/>
	<path class="st0" d="M343.2,116.6c0,9.9-8,18-17.9,18c-9.9,0-18-8.1-18-18c0-9.9,8.1-17.9,18-17.9
		C335.2,98.6,343.2,106.6,343.2,116.6"/>
	<path class="st0" d="M973.6,116.6c0,9.9-8,18-18,18c-9.9,0-17.9-8.1-17.9-18c0-9.9,8.1-17.9,17.9-17.9
		C965.5,98.6,973.6,106.6,973.6,116.6"/>
	<polygon class="st1" points="21.8,85 21.8,162.8 12.9,162.8 12.9,85 0,85 0,76.6 34.2,76.6 34.2,85 	"/>
	<polygon class="st1" points="89.4,162.8 89.4,122.3 67.6,122.3 67.6,162.8 58.7,162.8 58.7,76.6 67.6,76.6 67.6,113.9 89.4,113.9 
		89.4,76.6 98.3,76.6 98.3,162.8 	"/>
	<polygon class="st1" points="129.4,162.8 129.4,76.6 157,76.6 157,85 138.3,85 138.3,113.9 157.2,113.9 157.2,122.3 138.3,122.3 
		138.3,154.4 157.2,154.4 157.2,162.8 	"/>
</g>
</svg>
